<?xml version="1.0" standalone="no"?><!DOCTYPE svg PUBLIC "-//W3C//DTD SVG 1.1//EN" "http://www.w3.org/Graphics/SVG/1.1/DTD/svg11.dtd"><svg height="1024" node-id="1" sillyvg="true" template-height="1024" template-width="1024" version="1.1" viewBox="0 0 1024 1024" width="1024" xmlns="http://www.w3.org/2000/svg" xmlns:xlink="http://www.w3.org/1999/xlink"><defs node-id="236"><linearGradient gradientUnits="objectBoundingBox" id="linearGradient1" node-id="238" spreadMethod="pad" x1="0.5" x2="0.5" y1="0" y2="1"><stop offset="0" stop-color="#ffe4c9"></stop><stop offset="1" stop-color="#ffcdab"></stop></linearGradient><linearGradient gradientUnits="objectBoundingBox" id="linearGradient2" node-id="245" spreadMethod="pad" x1="0.5" x2="0.5" y1="0" y2="1"><stop offset="0" stop-color="#ffe4c9"></stop><stop offset="1" stop-color="#ffcdab"></stop></linearGradient><linearGradient gradientUnits="objectBoundingBox" id="linear-gradient" node-id="3" spreadMethod="pad" x1="0.5" x2="0.5" y1="0" y2="1"><stop offset="0" stop-color="#ffe4c9"></stop><stop offset="1" stop-color="#ffcdab"></stop></linearGradient><clipPath id="clip-时尚购物" node-id="28"><path d="M 0.00 0.00 L 1024.00 0.00 L 1024.00 1024.00 L 0.00 1024.00 Z" fill="#000000" fill-rule="nonzero" node-id="259" stroke="none" target-height="1024" target-width="1024" target-x="0" target-y="0"></path></clipPath><clipPath id="clip-path" node-id="6"><path d="M 913.00 512.00 L 912.70 527.40 L 911.80 542.60 L 910.30 557.80 L 908.20 572.80 L 905.50 587.70 L 902.20 602.50 L 898.40 617.10 L 894.10 631.50 L 889.10 645.70 L 883.60 659.70 L 877.60 673.50 L 871.00 687.10 L 863.90 700.40 L 856.30 713.40 L 848.10 726.20 L 839.50 738.60 L 830.40 750.70 L 820.70 762.40 L 810.60 773.80 L 799.90 784.90 L 788.80 795.60 L 777.40 805.70 L 765.70 815.40 L 753.60 824.50 L 741.20 833.10 L 728.40 841.30 L 715.40 848.90 L 702.10 856.00 L 688.50 862.60 L 674.70 868.60 L 660.70 874.10 L 646.50 879.10 L 632.10 883.40 L 617.50 887.20 L 602.70 890.50 L 587.80 893.20 L 572.80 895.30 L 557.60 896.80 L 542.40 897.70 L 527.00 898.00 L 511.60 897.70 L 496.40 896.80 L 481.20 895.30 L 466.20 893.20 L 451.30 890.50 L 436.50 887.20 L 421.90 883.40 L 407.50 879.10 L 393.30 874.10 L 379.30 868.60 L 365.50 862.60 L 351.90 856.00 L 338.60 848.90 L 325.60 841.30 L 312.80 833.10 L 300.40 824.50 L 288.30 815.40 L 276.60 805.70 L 265.20 795.60 L 254.10 784.90 L 243.40 773.80 L 233.30 762.40 L 223.60 750.70 L 214.50 738.60 L 205.90 726.20 L 197.70 713.40 L 190.10 700.40 L 183.00 687.10 L 176.40 673.50 L 170.40 659.70 L 164.90 645.70 L 159.90 631.50 L 155.60 617.10 L 151.80 602.50 L 148.50 587.70 L 145.80 572.80 L 143.70 557.80 L 142.20 542.60 L 141.30 527.40 L 141.00 512.00 L 141.30 496.60 L 142.20 481.40 L 143.70 466.20 L 145.80 451.20 L 148.50 436.30 L 151.80 421.50 L 155.60 406.90 L 159.90 392.50 L 164.90 378.30 L 170.40 364.30 L 176.40 350.50 L 183.00 336.90 L 190.10 323.60 L 197.70 310.60 L 205.90 297.80 L 214.50 285.40 L 223.60 273.30 L 233.30 261.60 L 243.40 250.20 L 254.10 239.10 L 265.20 228.40 L 276.60 218.30 L 288.30 208.60 L 300.40 199.50 L 312.80 190.90 L 325.60 182.70 L 338.60 175.10 L 351.90 168.00 L 365.50 161.40 L 379.30 155.40 L 393.30 149.90 L 407.50 144.90 L 421.90 140.60 L 436.50 136.80 L 451.30 133.50 L 466.20 130.80 L 481.20 128.70 L 496.40 127.20 L 511.60 126.30 L 527.00 126.00 L 542.40 126.30 L 557.60 127.20 L 572.80 128.70 L 587.80 130.80 L 602.70 133.50 L 617.50 136.80 L 632.10 140.60 L 646.50 144.90 L 660.70 149.90 L 674.70 155.40 L 688.50 161.40 L 702.10 168.00 L 715.40 175.10 L 728.40 182.70 L 741.20 190.90 L 753.60 199.50 L 765.70 208.60 L 777.40 218.30 L 788.80 228.40 L 799.90 239.10 L 810.60 250.20 L 820.70 261.60 L 830.40 273.30 L 839.50 285.40 L 848.10 297.80 L 856.30 310.60 L 863.90 323.60 L 871.00 336.90 L 877.60 350.50 L 883.60 364.30 L 889.10 378.30 L 894.10 392.50 L 898.40 406.90 L 902.20 421.50 L 905.50 436.30 L 908.20 451.20 L 910.30 466.20 L 911.80 481.40 L 912.70 496.60 L 913.00 512.00 Z" fill="#000000" fill-rule="nonzero" id="椭圆_131" node-id="7" stroke="none" target-height="772" target-width="772" target-x="141" target-y="126"></path></clipPath><clipPath id="clip-path-2" node-id="8"><path d="M 596.20 192.30 L 598.70 214.90 L 599.60 226.40 L 600.10 238.50 L 600.80 241.00 L 602.00 243.40 L 604.50 246.70 L 607.60 249.70 L 614.20 254.70 L 622.20 259.00 L 650.80 263.00 L 663.20 252.20 L 651.70 231.10 L 643.70 205.80 Z" fill="#000000" fill-rule="nonzero" id="路径_130" node-id="9" stroke="none" target-height="70.7" target-width="67" target-x="596.2" target-y="192.3"></path></clipPath><clipPath id="clip-path-3" node-id="10"><path d="M 600.80 235.70 L 591.80 236.30 L 583.30 238.40 L 577.90 240.50 L 572.70 243.20 L 567.90 246.50 L 564.50 249.30 L 558.50 255.70 L 541.20 280.20 L 529.30 295.90 L 569.90 335.30 L 582.40 323.50 L 589.20 383.00 L 616.60 386.00 L 632.40 387.20 L 648.20 387.80 L 661.80 387.30 L 673.00 386.10 L 686.90 384.00 L 690.50 383.00 L 692.50 382.10 L 694.00 380.50 L 700.50 350.40 L 701.10 349.00 L 705.40 341.20 L 709.40 332.10 L 711.10 326.90 L 712.30 319.80 L 712.30 316.20 L 712.00 312.60 L 711.00 309.20 L 709.50 305.80 L 700.20 290.20 L 715.40 270.90 L 698.90 254.30 L 690.30 246.50 L 686.10 243.10 L 682.70 240.70 L 679.20 238.80 L 671.30 235.50 L 659.60 232.30 L 651.40 230.70 L 654.70 236.90 L 657.10 243.20 L 657.90 247.90 L 657.90 250.40 L 657.50 252.70 L 656.60 255.10 L 655.20 257.50 L 654.20 258.50 L 651.50 259.70 L 647.10 259.70 L 640.90 258.10 L 630.40 253.70 L 619.60 247.90 L 610.10 242.00 L 600.80 235.70 Z" fill="#000000" fill-rule="nonzero" id="路径_134" node-id="11" stroke="none" target-height="157.09999" target-width="186.10004" target-x="529.3" target-y="230.7"></path></clipPath><clipPath id="clip-path-4" node-id="12"><path d="M 592.60 403.20 L 630.70 407.80 L 644.70 409.10 L 662.00 410.10 L 671.70 409.30 L 677.90 408.30 L 684.00 406.80 L 690.00 405.00 L 692.90 417.60 L 695.00 437.30 L 695.40 450.60 L 695.00 473.90 L 692.90 507.90 L 690.60 528.40 L 686.60 553.30 L 681.50 581.00 L 675.80 609.70 L 659.70 683.90 L 650.00 726.30 L 621.10 845.80 L 618.00 845.90 L 599.50 843.30 L 577.10 839.20 L 569.30 837.50 L 566.10 836.50 L 573.50 801.70 L 595.30 703.50 L 595.30 559.40 L 531.30 626.00 L 508.90 648.70 L 503.20 654.10 L 492.30 663.70 L 484.10 669.50 L 476.70 673.20 L 472.80 674.40 L 468.70 675.20 L 464.30 675.40 L 461.00 675.20 L 457.60 674.50 L 454.10 673.40 L 450.30 671.70 L 445.90 669.30 L 433.60 660.80 L 409.90 642.30 L 392.80 628.20 L 360.80 600.60 L 336.80 579.30 L 361.80 544.20 L 390.80 557.50 L 407.70 565.70 L 432.80 578.90 L 446.20 587.00 L 450.80 590.40 L 453.40 592.80 L 454.90 594.60 L 455.50 595.90 L 463.40 583.80 L 513.20 503.40 L 529.90 477.70 L 535.80 469.20 L 548.30 452.90 L 555.00 445.10 L 561.90 437.90 L 569.00 431.30 L 574.60 426.60 L 580.50 422.40 L 586.40 418.60 L 592.60 415.30 L 592.60 403.20 Z" fill="#000000" fill-rule="nonzero" id="路径_161" node-id="13" stroke="none" target-height="442.7" target-width="358.60004" target-x="336.8" target-y="403.2"></path></clipPath><clipPath id="clip-path-5_4" node-id="14"><path d="M 398.40 766.00 L 398.00 770.30 L 397.20 774.30 L 395.80 778.10 L 393.90 781.60 L 391.70 784.90 L 389.10 787.80 L 386.10 790.40 L 382.80 792.50 L 379.30 794.30 L 375.50 795.60 L 371.50 796.30 L 367.30 796.50 L 363.20 796.20 L 359.20 795.30 L 355.50 793.90 L 352.00 792.00 L 348.80 789.80 L 345.90 787.10 L 343.40 784.10 L 341.30 780.70 L 339.50 777.10 L 338.30 773.30 L 337.60 769.30 L 337.40 765.00 L 337.70 760.70 L 338.60 756.70 L 340.00 753.00 L 341.80 749.40 L 344.00 746.20 L 346.70 743.20 L 349.60 740.60 L 352.90 738.50 L 356.50 736.70 L 360.20 735.50 L 364.20 734.70 L 368.40 734.50 L 372.60 734.90 L 376.50 735.80 L 380.20 737.10 L 383.70 739.00 L 386.90 741.30 L 389.80 744.00 L 392.40 747.00 L 394.50 750.30 L 396.20 753.90 L 397.40 757.70 L 398.20 761.80 L 398.40 766.00 Z" fill="#000000" fill-rule="nonzero" id="椭圆_26" node-id="15" stroke="none" target-height="62" target-width="61" target-x="337.4" target-y="734.5"></path></clipPath><clipPath id="clip-path-5_3" node-id="14"><path d="M 346.10 205.00 L 345.70 209.20 L 344.90 213.20 L 343.50 217.00 L 341.60 220.60 L 339.40 223.80 L 336.80 226.70 L 333.80 229.30 L 330.50 231.50 L 327.00 233.20 L 323.20 234.50 L 319.20 235.20 L 315.00 235.50 L 310.90 235.10 L 306.90 234.20 L 303.20 232.80 L 299.70 231.00 L 296.50 228.70 L 293.60 226.00 L 291.10 223.00 L 289.00 219.70 L 287.20 216.00 L 286.00 212.20 L 285.30 208.20 L 285.10 203.90 L 285.40 199.70 L 286.30 195.70 L 287.70 191.90 L 289.50 188.30 L 291.70 185.10 L 294.40 182.20 L 297.30 179.60 L 300.60 177.40 L 304.20 175.70 L 307.90 174.40 L 311.90 173.70 L 316.10 173.40 L 320.30 173.80 L 324.20 174.70 L 327.90 176.10 L 331.40 178.00 L 334.60 180.20 L 337.50 182.90 L 340.10 185.90 L 342.20 189.20 L 343.90 192.90 L 345.10 196.70 L 345.90 200.70 L 346.10 205.00 Z" fill="#000000" fill-rule="nonzero" id="椭圆_26" node-id="15" stroke="none" target-height="62.100006" target-width="61" target-x="285.1" target-y="173.4"></path></clipPath><clipPath id="clip-path-5" node-id="14"><path d="M 61.00 31.00 L 60.70 35.30 L 59.90 39.30 L 58.60 43.10 L 56.90 46.70 L 54.70 50.00 L 52.10 52.90 L 49.20 55.60 L 45.90 57.80 L 42.40 59.60 L 38.70 60.90 L 34.70 61.70 L 30.50 62.00 L 26.30 61.70 L 22.40 60.90 L 18.60 59.60 L 15.10 57.80 L 11.90 55.60 L 8.90 52.90 L 6.40 50.00 L 4.20 46.70 L 2.40 43.10 L 1.10 39.30 L 0.30 35.30 L 0.00 31.00 L 0.30 26.70 L 1.10 22.70 L 2.40 18.90 L 4.20 15.30 L 6.40 12.10 L 8.90 9.10 L 11.90 6.50 L 15.10 4.20 L 18.60 2.40 L 22.40 1.10 L 26.30 0.30 L 30.50 0.00 L 34.70 0.30 L 38.70 1.10 L 42.40 2.40 L 45.90 4.20 L 49.20 6.50 L 52.10 9.10 L 54.70 12.10 L 56.90 15.30 L 58.60 18.90 L 59.90 22.70 L 60.70 26.70 L 61.00 31.00 Z" fill="#000000" fill-rule="nonzero" id="椭圆_26" node-id="15" stroke="none" target-height="62" target-width="61" target-x="0" target-y="0"></path></clipPath><clipPath id="clip-path-7_4" node-id="16"><path d="M 767.00 779.00 L 764.40 779.90 L 761.80 780.40 L 759.20 780.50 L 756.60 780.10 L 754.20 779.30 L 752.00 778.10 L 749.90 776.50 L 748.20 774.50 L 746.80 772.20 L 745.80 769.60 L 745.30 767.10 L 745.30 764.50 L 745.80 761.90 L 746.60 759.60 L 747.90 757.30 L 749.50 755.30 L 751.50 753.50 L 753.90 752.10 L 756.50 751.10 L 759.10 750.60 L 761.70 750.60 L 764.20 751.00 L 766.70 751.80 L 768.90 753.00 L 770.90 754.60 L 772.70 756.50 L 774.10 758.90 L 775.10 761.40 L 775.50 764.00 L 775.50 766.60 L 775.10 769.10 L 774.20 771.50 L 773.00 773.80 L 771.40 775.80 L 769.40 777.50 L 767.00 779.00 Z" fill="#000000" fill-rule="nonzero" id="椭圆_26-3" node-id="17" stroke="none" target-height="29.900024" target-width="30.200012" target-x="745.3" target-y="750.6"></path></clipPath><clipPath id="clip-path-7_3" node-id="16"><path d="M 377.50 146.20 L 379.40 148.10 L 380.90 150.30 L 382.00 152.70 L 382.70 155.20 L 382.90 157.70 L 382.70 160.30 L 382.10 162.80 L 381.00 165.10 L 379.50 167.40 L 377.50 169.30 L 375.40 170.80 L 373.00 171.80 L 370.50 172.50 L 368.00 172.70 L 365.40 172.40 L 362.90 171.80 L 360.50 170.70 L 358.20 169.10 L 356.30 167.10 L 354.80 164.90 L 353.70 162.60 L 353.00 160.10 L 352.80 157.50 L 353.00 155.00 L 353.60 152.50 L 354.70 150.10 L 356.20 147.90 L 358.20 145.90 L 360.30 144.50 L 362.70 143.40 L 365.20 142.80 L 367.70 142.60 L 370.30 142.80 L 372.80 143.50 L 375.20 144.60 L 377.50 146.20 Z" fill="#000000" fill-rule="nonzero" id="椭圆_26-3" node-id="17" stroke="none" target-height="30.09999" target-width="30.100006" target-x="352.8" target-y="142.6"></path></clipPath><clipPath id="clip-path-7" node-id="16"><path d="M 29.90 15.20 L 29.60 18.00 L 29.00 20.50 L 27.90 22.90 L 26.40 25.00 L 24.60 26.80 L 22.50 28.30 L 20.20 29.40 L 17.70 30.10 L 14.90 30.40 L 12.20 30.10 L 9.70 29.40 L 7.40 28.30 L 5.30 26.80 L 3.50 25.00 L 2.00 22.90 L 0.90 20.50 L 0.30 18.00 L 0.00 15.20 L 0.30 12.40 L 0.90 9.90 L 2.00 7.50 L 3.50 5.40 L 5.30 3.60 L 7.40 2.10 L 9.70 0.90 L 12.20 0.30 L 14.90 0.00 L 17.70 0.30 L 20.20 0.90 L 22.50 2.10 L 24.60 3.60 L 26.40 5.40 L 27.90 7.50 L 29.00 9.90 L 29.60 12.40 L 29.90 15.20 Z" fill="#000000" fill-rule="nonzero" id="椭圆_26-3" node-id="17" stroke="none" target-height="30.4" target-width="29.9" target-x="0" target-y="0"></path></clipPath><clipPath id="clip-path-8" node-id="18"><path d="M 842.50 617.40 L 841.50 615.60 L 839.50 613.90 L 838.20 613.50 L 836.70 613.50 L 834.80 614.30 L 789.90 645.50 L 761.40 665.80 L 748.80 675.10 L 748.20 675.70 L 749.40 679.00 L 758.70 695.50 L 775.90 723.90 L 869.00 671.10 L 870.40 668.50 L 870.60 667.00 L 870.30 665.20 L 869.30 663.10 L 842.50 617.40 Z" fill="#000000" fill-rule="nonzero" id="路径_16" node-id="19" stroke="none" target-height="110.400024" target-width="122.39996" target-x="748.2" target-y="613.5"></path></clipPath><clipPath id="clip-path-9" node-id="20"><path d="M 748.70 602.00 L 746.60 601.20 L 745.30 601.20 L 743.80 602.10 L 743.10 603.20 L 726.90 645.10 L 717.40 671.40 L 720.00 673.10 L 726.30 676.40 L 751.60 688.20 L 784.00 623.30 L 784.40 621.90 L 784.20 620.40 L 782.80 618.60 L 781.50 617.70 L 748.70 602.00 Z" fill="#000000" fill-rule="nonzero" id="路径_16-2" node-id="21" stroke="none" target-height="87" target-width="67" target-x="717.4" target-y="601.2"></path></clipPath><clipPath id="clip-path-11" node-id="22"><path d="M 207.50 762.90 L 216.40 772.40 L 231.60 787.30 L 244.00 798.20 L 250.30 803.30 L 256.80 808.00 L 267.00 814.30 L 270.80 816.00 L 277.70 818.40 L 282.60 820.80 L 285.30 823.40 L 286.20 825.00 L 286.50 826.80 L 286.40 829.10 L 279.30 840.60 L 271.30 852.10 L 267.30 857.40 L 263.40 861.80 L 259.60 865.70 L 256.40 868.20 L 254.10 869.50 L 252.30 869.90 L 250.90 869.70 L 243.30 866.80 L 230.90 861.30 L 215.60 854.00 L 199.70 845.40 L 185.10 836.10 L 180.70 832.80 L 173.80 826.70 L 171.00 823.40 L 169.10 820.50 L 168.00 817.80 L 167.60 815.00 L 167.70 812.00 L 168.40 808.70 L 169.60 805.40 L 173.40 798.40 L 177.00 793.20 L 185.70 783.00 L 198.70 770.40 L 207.50 762.90 Z" fill="#000000" fill-rule="nonzero" id="路径_124" node-id="23" stroke="none" target-height="107" target-width="118.899994" target-x="167.6" target-y="762.9"></path></clipPath><clipPath id="clip-path-12" node-id="24"><path d="M 309.10 711.80 L 298.70 720.10 L 288.60 728.80 L 277.90 739.10 L 272.90 744.50 L 266.00 753.30 L 264.10 756.60 L 260.30 764.50 L 258.80 766.40 L 257.20 767.80 L 255.90 768.30 L 252.70 768.20 L 244.30 761.90 L 232.20 751.50 L 226.30 745.10 L 224.50 742.40 L 223.80 740.60 L 223.50 739.20 L 223.80 738.10 L 231.60 723.20 L 238.30 712.00 L 246.00 700.20 L 254.20 689.60 L 258.30 685.00 L 262.20 681.50 L 264.80 679.60 L 267.20 678.30 L 269.40 677.70 L 271.90 677.50 L 274.70 678.00 L 277.70 679.10 L 283.50 682.70 L 290.80 689.20 L 295.00 693.60 L 302.20 702.30 L 309.10 711.80 Z" fill="#000000" fill-rule="nonzero" id="路径_124-2" node-id="25" stroke="none" target-height="90.79999" target-width="85.600006" target-x="223.5" target-y="677.5"></path></clipPath><clipPath id="clip-path-13" node-id="26"><path d="M 193.50 703.00 L 202.10 712.50 L 216.70 727.40 L 228.70 738.20 L 234.90 743.20 L 241.30 747.90 L 247.30 751.70 L 251.40 753.90 L 255.30 755.60 L 262.30 757.70 L 267.30 760.00 L 269.90 762.60 L 270.60 764.20 L 270.80 766.10 L 270.50 768.50 L 262.00 781.00 L 252.70 793.40 L 248.00 799.20 L 243.60 804.00 L 239.20 808.30 L 235.60 811.10 L 233.10 812.60 L 231.20 813.10 L 229.70 813.00 L 222.00 810.30 L 209.50 805.20 L 194.20 798.30 L 178.20 790.00 L 170.50 785.50 L 163.70 781.00 L 159.30 777.80 L 152.70 771.70 L 150.60 769.20 L 148.00 764.80 L 147.40 762.70 L 147.20 759.80 L 147.50 756.60 L 148.60 753.10 L 150.20 749.60 L 154.70 742.00 L 158.90 736.40 L 168.90 725.20 L 183.70 711.30 L 193.50 703.00 Z" fill="#000000" fill-rule="nonzero" id="路径_124-3" node-id="27" stroke="none" target-height="110.099976" target-width="123.59999" target-x="147.2" target-y="703"></path></clipPath></defs><g clip-path="url(#clip-时尚购物)" id="时尚购物" node-id="30"><path d="M 0.00 0.00 L 1024.00 0.00 L 1024.00 1024.00 L 0.00 1024.00 Z" fill="#f8f0e8" fill-rule="nonzero" node-id="297" stroke="none" target-height="1024" target-width="1024" target-x="0" target-y="0"></path><path d="M 257.00 316.00 L 256.80 322.80 L 256.10 329.40 L 255.10 335.80 L 253.60 342.10 L 251.80 348.20 L 249.00 355.80 L 245.60 362.90 L 241.70 369.70 L 237.30 376.20 L 232.40 382.40 L 227.10 388.10 L 221.40 393.40 L 215.20 398.30 L 208.70 402.70 L 201.90 406.60 L 194.80 410.00 L 187.20 412.80 L 181.10 414.60 L 174.80 416.10 L 168.40 417.10 L 161.80 417.80 L 155.00 418.00 L 148.20 417.80 L 141.60 417.10 L 135.20 416.10 L 128.90 414.60 L 122.80 412.80 L 115.20 410.00 L 108.10 406.60 L 101.30 402.70 L 94.80 398.30 L 88.60 393.40 L 82.90 388.10 L 77.60 382.40 L 72.70 376.20 L 68.30 369.70 L 64.40 362.90 L 61.00 355.80 L 58.20 348.20 L 56.40 342.10 L 54.90 335.80 L 53.90 329.40 L 53.20 322.80 L 53.00 316.00 L 53.20 309.20 L 53.90 302.60 L 54.90 296.20 L 56.40 289.90 L 58.20 283.80 L 61.00 276.20 L 64.40 269.10 L 68.30 262.30 L 72.70 255.80 L 77.60 249.60 L 82.90 243.90 L 88.60 238.60 L 94.80 233.70 L 101.30 229.30 L 108.10 225.40 L 115.20 222.00 L 122.80 219.20 L 128.90 217.40 L 135.20 215.90 L 141.60 214.90 L 148.20 214.20 L 155.00 214.00 L 161.80 214.20 L 168.40 214.90 L 174.80 215.90 L 181.10 217.40 L 187.20 219.20 L 194.80 222.00 L 201.90 225.40 L 208.70 229.30 L 215.20 233.70 L 221.40 238.60 L 227.10 243.90 L 232.40 249.60 L 237.30 255.80 L 241.70 262.30 L 245.60 269.10 L 249.00 276.20 L 251.80 283.80 L 253.60 289.90 L 255.10 296.20 L 256.10 302.60 L 256.80 309.20 L 257.00 316.00 Z" fill="url(#linearGradient1)" fill-opacity="0.46" fill-rule="nonzero" group-id="1" id="椭圆_132" node-id="32" stroke="none" target-height="204" target-width="204" target-x="53" target-y="214"></path><path d="M 936.00 853.00 L 935.80 857.70 L 935.10 862.10 L 934.00 866.40 L 932.50 870.50 L 930.50 874.50 L 928.30 878.20 L 925.70 881.60 L 922.80 884.80 L 919.60 887.70 L 916.20 890.30 L 912.50 892.50 L 908.50 894.50 L 904.40 896.00 L 900.10 897.10 L 895.70 897.80 L 891.00 898.00 L 886.30 897.80 L 881.90 897.10 L 877.60 896.00 L 873.50 894.50 L 869.50 892.50 L 865.80 890.30 L 862.40 887.70 L 859.20 884.80 L 856.30 881.60 L 853.70 878.20 L 851.50 874.50 L 849.50 870.50 L 848.00 866.40 L 846.90 862.10 L 846.20 857.70 L 846.00 853.00 L 846.20 848.30 L 846.90 843.90 L 848.00 839.60 L 849.50 835.50 L 851.50 831.50 L 853.70 827.80 L 856.30 824.40 L 859.20 821.20 L 862.40 818.30 L 865.80 815.70 L 869.50 813.50 L 873.50 811.50 L 877.60 810.00 L 881.90 808.90 L 886.30 808.20 L 891.00 808.00 L 895.70 808.20 L 900.10 808.90 L 904.40 810.00 L 908.50 811.50 L 912.50 813.50 L 916.20 815.70 L 919.60 818.30 L 922.80 821.20 L 925.70 824.40 L 928.30 827.80 L 930.50 831.50 L 932.50 835.50 L 934.00 839.60 L 935.10 843.90 L 935.80 848.30 L 936.00 853.00 Z" fill="url(#linearGradient2)" fill-opacity="0.46" fill-rule="nonzero" group-id="2" id="椭圆_133" node-id="33" stroke="none" target-height="90" target-width="90" target-x="846" target-y="808"></path><path d="M 913.00 512.00 L 912.70 527.40 L 911.80 542.60 L 910.30 557.80 L 908.20 572.80 L 905.50 587.70 L 902.20 602.50 L 898.40 617.10 L 894.10 631.50 L 889.10 645.70 L 883.60 659.70 L 877.60 673.50 L 871.00 687.10 L 863.90 700.40 L 856.30 713.40 L 848.10 726.20 L 839.50 738.60 L 830.40 750.70 L 820.70 762.40 L 810.60 773.80 L 799.90 784.90 L 788.80 795.60 L 777.40 805.70 L 765.70 815.40 L 753.60 824.50 L 741.20 833.10 L 728.40 841.30 L 715.40 848.90 L 702.10 856.00 L 688.50 862.60 L 674.70 868.60 L 660.70 874.10 L 646.50 879.10 L 632.10 883.40 L 617.50 887.20 L 602.70 890.50 L 587.80 893.20 L 572.80 895.30 L 557.60 896.80 L 542.40 897.70 L 527.00 898.00 L 511.60 897.70 L 496.40 896.80 L 481.20 895.30 L 466.20 893.20 L 451.30 890.50 L 436.50 887.20 L 421.90 883.40 L 407.50 879.10 L 393.30 874.10 L 379.30 868.60 L 365.50 862.60 L 351.90 856.00 L 338.60 848.90 L 325.60 841.30 L 312.80 833.10 L 300.40 824.50 L 288.30 815.40 L 276.60 805.70 L 265.20 795.60 L 254.10 784.90 L 243.40 773.80 L 233.30 762.40 L 223.60 750.70 L 214.50 738.60 L 205.90 726.20 L 197.70 713.40 L 190.10 700.40 L 183.00 687.10 L 176.40 673.50 L 170.40 659.70 L 164.90 645.70 L 159.90 631.50 L 155.60 617.10 L 151.80 602.50 L 148.50 587.70 L 145.80 572.80 L 143.70 557.80 L 142.20 542.60 L 141.30 527.40 L 141.00 512.00 L 141.30 496.60 L 142.20 481.40 L 143.70 466.20 L 145.80 451.20 L 148.50 436.30 L 151.80 421.50 L 155.60 406.90 L 159.90 392.50 L 164.90 378.30 L 170.40 364.30 L 176.40 350.50 L 183.00 336.90 L 190.10 323.60 L 197.70 310.60 L 205.90 297.80 L 214.50 285.40 L 223.60 273.30 L 233.30 261.60 L 243.40 250.20 L 254.10 239.10 L 265.20 228.40 L 276.60 218.30 L 288.30 208.60 L 300.40 199.50 L 312.80 190.90 L 325.60 182.70 L 338.60 175.10 L 351.90 168.00 L 365.50 161.40 L 379.30 155.40 L 393.30 149.90 L 407.50 144.90 L 421.90 140.60 L 436.50 136.80 L 451.30 133.50 L 466.20 130.80 L 481.20 128.70 L 496.40 127.20 L 511.60 126.30 L 527.00 126.00 L 542.40 126.30 L 557.60 127.20 L 572.80 128.70 L 587.80 130.80 L 602.70 133.50 L 617.50 136.80 L 632.10 140.60 L 646.50 144.90 L 660.70 149.90 L 674.70 155.40 L 688.50 161.40 L 702.10 168.00 L 715.40 175.10 L 728.40 182.70 L 741.20 190.90 L 753.60 199.50 L 765.70 208.60 L 777.40 218.30 L 788.80 228.40 L 799.90 239.10 L 810.60 250.20 L 820.70 261.60 L 830.40 273.30 L 839.50 285.40 L 848.10 297.80 L 856.30 310.60 L 863.90 323.60 L 871.00 336.90 L 877.60 350.50 L 883.60 364.30 L 889.10 378.30 L 894.10 392.50 L 898.40 406.90 L 902.20 421.50 L 905.50 436.30 L 908.20 451.20 L 910.30 466.20 L 911.80 481.40 L 912.70 496.60 L 913.00 512.00 Z" fill="url(#linear-gradient)" fill-rule="nonzero" group-id="3" id="椭圆_130" node-id="34" stroke="none" target-height="772" target-width="772" target-x="141" target-y="126"></path><g clip-path="url(#clip-path)" group-id="4" id="蒙版组_108" node-id="35"><path d="M 45.90 -119.50 L 1023.10 -119.50 L 534.50 699.00 L 45.90 -119.50 Z" fill="#ffffff" fill-opacity="0.2915" fill-rule="nonzero" group-id="4,6" node-id="313" stroke="none" target-height="818.5" target-width="977.19995" target-x="45.9" target-y="-119.5"></path><path d="M 534.50 698.00 L 1022.20 -119.00 L 46.80 -119.00 L 534.50 698.00 M 534.50 700.00 L 45.00 -120.00 L 1024.00 -120.00 L 534.50 700.00 Z" fill="#707070" fill-opacity="0.2915" fill-rule="nonzero" group-id="4,6" node-id="315" stroke="none" target-height="820" target-width="979" target-x="45" target-y="-120"></path><path d="M 456.90 126.50 L 1434.10 126.50 L 945.50 945.00 L 456.90 126.50 Z" fill="#ffffff" fill-opacity="0.2915" fill-rule="nonzero" group-id="4,7" node-id="319" stroke="none" target-height="818.5" target-width="977.19995" target-x="456.9" target-y="126.5"></path><path d="M 945.50 944.00 L 1433.20 127.00 L 457.80 127.00 L 945.50 944.00 M 945.50 946.00 L 456.00 126.00 L 1435.00 126.00 L 945.50 946.00 Z" fill="#707070" fill-opacity="0.2915" fill-rule="nonzero" group-id="4,7" node-id="321" stroke="none" target-height="820" target-width="979" target-x="456" target-y="126"></path></g><path d="M 362.90 544.60 L 300.50 512.60 L 251.50 519.90 L 243.70 538.50 L 259.20 541.20 L 341.10 577.70 Z" fill="#fdbba7" fill-rule="nonzero" group-id="5,8,24" id="路径_162" node-id="44" stroke="none" target-height="65.10004" target-width="119.2" target-x="243.7" target-y="512.6"></path><path d="M 215.80 551.00 L 224.30 552.80 L 233.00 553.30 L 237.90 552.90 L 243.10 551.90 L 249.90 549.30 L 253.40 547.40 L 256.50 545.10 L 259.60 542.20 L 269.10 531.00 L 275.40 525.50 L 282.30 521.30 L 289.40 518.80 L 294.40 517.90 L 299.70 517.60 L 305.40 517.90 L 311.10 518.70 L 317.30 520.00 L 327.60 522.80 L 329.90 522.60 L 330.10 522.10 L 329.70 521.20 L 325.60 517.00 L 311.30 506.20 L 299.90 498.50 L 278.20 484.50 L 266.70 479.50 L 262.30 484.50 L 274.10 491.00 L 285.00 503.80 L 243.10 502.60 Z" fill="#fe7f7f" fill-rule="nonzero" group-id="5,8,25" id="路径_163" node-id="45" stroke="none" target-height="73.79999" target-width="114.3" target-x="215.8" target-y="479.5"></path><path d="M 575.50 832.50 L 570.20 868.20 L 575.50 904.20 L 592.90 924.50 L 618.30 928.40 L 619.40 924.50 L 613.00 841.00 Z" fill="#fdbba7" fill-rule="nonzero" group-id="5,9,26" id="路径_164" node-id="47" stroke="none" target-height="95.900024" target-width="49.200012" target-x="570.2" target-y="832.5"></path><path d="M 570.90 862.30 L 568.50 865.90 L 566.50 869.50 L 564.90 873.40 L 563.70 877.40 L 562.80 881.50 L 562.10 893.70 L 560.70 952.60 L 567.40 952.60 L 572.10 912.40 L 592.90 953.40 L 649.00 952.60 L 646.80 947.30 L 642.40 939.80 L 639.20 935.80 L 634.10 930.90 L 630.90 928.70 L 627.60 926.90 L 623.80 925.60 L 614.20 923.70 L 609.40 922.40 L 601.10 919.10 L 593.80 914.50 L 587.90 908.90 L 584.50 904.70 L 581.60 900.10 L 579.10 895.00 L 576.70 889.00 L 573.40 877.70 L 572.30 872.80 L 570.90 862.30 Z" fill="#fe7f7f" fill-rule="nonzero" group-id="5,9,27" id="路径_165" node-id="48" stroke="none" target-height="91.10004" target-width="88.29999" target-x="560.7" target-y="862.3"></path><path d="M 652.50 107.70 L 653.00 105.20 L 652.80 102.90 L 651.70 100.20 L 649.60 98.20 L 648.10 97.50 L 644.60 97.00 L 631.10 98.40 L 589.60 104.80 L 583.90 106.20 L 577.80 109.10 L 572.40 113.00 L 570.30 115.30 L 569.00 117.50 L 568.60 119.10 L 568.60 120.70 L 569.00 122.20 L 566.00 122.50 L 563.00 123.30 L 560.00 124.70 L 557.20 126.70 L 554.40 129.00 L 551.70 131.90 L 546.90 138.50 L 544.70 142.20 L 542.80 146.10 L 539.90 154.00 L 538.30 162.00 L 538.00 165.70 L 538.10 169.40 L 538.70 172.80 L 539.70 175.80 L 533.90 174.90 L 529.70 174.90 L 520.90 175.80 L 510.60 178.20 L 505.30 179.80 L 494.50 184.20 L 484.10 190.00 L 479.20 193.40 L 474.80 197.20 L 470.70 201.30 L 467.90 204.60 L 463.40 211.80 L 461.60 215.70 L 459.30 222.20 L 456.40 232.60 L 455.50 237.50 L 455.20 245.60 L 455.60 249.30 L 456.50 252.80 L 457.70 256.00 L 461.20 262.20 L 463.60 265.40 L 467.60 270.00 L 475.50 277.90 L 483.40 283.80 L 490.20 288.00 L 497.80 291.90 L 505.70 295.40 L 513.80 298.30 L 524.70 301.20 L 535.10 302.60 L 539.90 302.60 L 544.20 302.20 L 547.50 301.50 L 550.30 300.50 L 555.10 297.60 L 575.00 279.90 L 617.10 240.60 L 642.40 233.70 L 651.70 231.60 L 673.60 236.20 L 676.10 235.50 L 677.90 234.40 L 681.50 231.00 L 684.00 226.60 L 684.90 224.00 L 685.40 220.80 L 685.60 216.90 L 685.30 213.00 L 684.50 208.40 L 682.90 202.80 L 680.30 197.10 L 678.70 194.70 L 671.50 185.90 L 670.20 183.70 L 669.30 180.80 L 669.00 175.30 L 670.10 164.50 L 670.20 154.20 L 669.70 149.40 L 668.70 145.00 L 667.40 141.00 L 663.60 133.70 L 658.00 126.40 L 651.40 120.40 L 646.40 117.20 L 650.10 112.40 L 652.50 107.70 Z" fill="#242227" fill-rule="nonzero" group-id="5,10,28" id="路径_127" node-id="50" stroke="none" target-height="205.6" target-width="230.39996" target-x="455.2" target-y="97"></path><path d="M 596.20 192.30 L 598.70 214.90 L 599.60 226.40 L 600.10 238.50 L 600.80 241.00 L 602.00 243.40 L 604.50 246.70 L 607.60 249.70 L 614.20 254.70 L 622.20 259.00 L 650.80 263.00 L 663.20 252.20 L 651.70 231.10 L 643.70 205.80 Z" fill="#fdbba6" fill-rule="nonzero" group-id="5,10,29" id="路径_128" node-id="51" stroke="none" target-height="70.7" target-width="67" target-x="596.2" target-y="192.3"></path><g clip-path="url(#clip-path-2)" group-id="5,10,30" node-id="356"><path d="M 594.30 195.50 L 603.40 206.10 L 611.00 213.60 L 619.90 220.70 L 624.60 223.50 L 631.10 226.40 L 641.00 228.50 L 649.60 229.50 L 653.80 229.50 L 655.20 229.10 L 648.70 202.60 L 599.10 187.60 L 594.30 195.50 Z" fill="#ef9374" fill-rule="nonzero" group-id="5,10,30,70" id="路径_129" node-id="53" stroke="none" target-height="41.899994" target-width="60.900024" target-x="594.3" target-y="187.6"></path></g><path d="M 641.90 120.00 L 648.50 127.60 L 651.00 131.30 L 655.60 139.90 L 658.80 149.30 L 660.10 154.50 L 662.00 167.40 L 662.20 174.40 L 662.00 180.50 L 661.30 185.70 L 660.00 190.90 L 658.60 195.30 L 656.90 199.10 L 652.70 205.70 L 650.50 208.20 L 647.10 211.40 L 644.20 213.60 L 641.30 215.20 L 637.90 216.10 L 634.90 216.10 L 627.20 215.10 L 622.80 214.00 L 617.90 212.40 L 613.10 210.30 L 608.30 207.60 L 605.30 205.40 L 599.80 200.10 L 597.50 197.00 L 595.50 193.50 L 593.80 189.60 L 587.90 186.10 L 585.40 184.00 L 581.50 179.60 L 579.20 175.00 L 578.70 172.90 L 578.60 170.90 L 579.10 169.10 L 580.00 167.60 L 581.50 166.30 L 583.30 165.40 L 585.90 164.90 L 589.40 164.80 L 591.70 162.10 L 595.30 156.60 L 597.10 152.20 L 598.30 148.00 L 599.10 143.70 L 599.40 136.80 L 599.10 132.30 L 610.40 131.50 L 615.50 130.80 L 621.20 129.70 L 626.90 128.10 L 632.40 126.10 L 636.00 124.30 L 639.10 122.30 L 641.90 120.00 Z" fill="#fdbba7" fill-rule="nonzero" group-id="5,10,31" id="路径_126" node-id="54" stroke="none" target-height="96.100006" target-width="83.60004" target-x="578.6" target-y="120"></path><path d="M 709.50 274.70 L 729.00 291.50 L 778.00 236.80 L 780.20 221.70 L 782.60 211.60 L 783.50 209.60 L 786.40 204.80 L 792.40 197.30 L 796.70 193.60 L 798.70 192.60 L 800.80 192.00 L 809.10 191.30 L 815.70 191.50 L 840.90 177.10 L 842.70 176.60 L 846.10 176.20 L 847.30 176.50 L 847.60 176.90 L 845.80 178.90 L 841.30 182.70 L 822.80 197.00 L 822.20 199.00 L 821.90 206.10 L 823.70 218.20 L 823.10 220.40 L 822.20 222.10 L 818.20 226.40 L 804.80 238.90 L 787.00 270.00 L 776.30 288.00 L 765.10 306.20 L 754.40 322.10 L 749.30 328.90 L 745.30 333.80 L 742.50 336.60 L 740.40 338.10 L 739.00 338.80 L 733.80 339.00 L 726.80 337.60 L 718.60 334.30 L 707.70 328.10 L 687.70 288.40 Z" fill="#fdbba6" fill-rule="nonzero" group-id="5,11,32" id="路径_150" node-id="56" stroke="none" target-height="162.8" target-width="159.89996" target-x="687.7" target-y="176.2"></path><path d="M 821.70 195.50 L 819.30 192.90 L 818.20 192.20 L 817.10 191.70 L 816.00 191.70 L 814.90 192.40 L 811.70 196.70 L 810.30 198.00 L 808.70 198.90 L 804.40 200.20 L 802.50 201.20 L 799.30 204.20 L 797.20 207.40 L 796.90 208.90 L 797.10 209.90 L 797.90 210.90 L 798.80 211.30 L 801.80 210.90" fill="none" group-id="5,11,33" id="路径_151" node-id="57" stroke="#6b4848" stroke-linecap="butt" stroke-width="2" target-height="19.600006" target-width="24.799988" target-x="796.9" target-y="191.7"></path><path d="M 803.00 214.80 L 801.60 213.20 L 801.30 212.00 L 801.60 210.10 L 805.00 206.30 L 807.90 204.10 L 811.10 202.30 L 814.20 201.70 L 817.50 202.00 L 819.70 203.10" fill="none" group-id="5,11,34" id="路径_152" node-id="58" stroke="#6b4848" stroke-linecap="butt" stroke-width="2" target-height="13.100006" target-width="18.400024" target-x="801.3" target-y="201.7"></path><path d="M 817.00 217.00 L 812.80 217.50 L 811.70 217.90 L 811.30 218.40 L 811.50 223.10 L 811.20 224.40 L 809.90 225.60 L 807.70 225.20 L 804.80 223.30 L 803.90 222.30 L 803.10 220.50 L 802.80 218.60 L 803.10 216.70 L 803.90 215.00 L 805.20 213.60 L 809.50 211.10 L 815.30 209.50 L 818.10 210.10 L 822.80 212.30" fill="none" group-id="5,11,35" id="路径_153" node-id="59" stroke="#6b4848" stroke-linecap="butt" stroke-width="2" target-height="16.100006" target-width="20" target-x="802.8" target-y="209.5"></path><path d="M 747.10 356.60 L 735.50 361.00 L 747.10 379.80 L 765.60 367.10 Z" fill="#4442ab" fill-rule="nonzero" group-id="5,11,36,71,167" id="路径_138" node-id="62" stroke="none" target-height="23.199982" target-width="30.099976" target-x="735.5" target-y="356.6"></path><path d="M 772.00 499.60 L 747.30 379.60 L 766.30 366.60 L 832.10 470.40 Z" fill="#746ceb" fill-rule="nonzero" group-id="5,11,36,71,168" id="路径_139" node-id="63" stroke="none" target-height="133" target-width="84.79999" target-x="747.3" target-y="366.6"></path><path d="M 757.00 484.40 L 772.40 500.10 L 747.50 379.60 Z" fill="#4442ab" fill-rule="nonzero" group-id="5,11,36,71,169" id="路径_140" node-id="64" stroke="none" target-height="120.5" target-width="24.900024" target-x="747.5" target-y="379.6"></path><path d="M 720.70 361.00 L 704.80 356.50 L 688.10 366.80 L 713.70 380.10 Z" fill="#db4f4f" fill-rule="nonzero" group-id="5,11,36,72,170" id="路径_143" node-id="66" stroke="none" target-height="23.600006" target-width="32.600037" target-x="688.1" target-y="356.5"></path><path d="M 637.30 477.10 L 687.90 497.90 L 713.60 379.70 L 687.90 366.60 Z" fill="#ff7c7c" fill-rule="nonzero" group-id="5,11,36,72,171" id="路径_144" node-id="67" stroke="none" target-height="131.29999" target-width="76.29999" target-x="637.3" target-y="366.6"></path><path d="M 700.80 489.20 L 687.90 497.70 L 713.70 379.50 Z" fill="#d94848" fill-rule="nonzero" group-id="5,11,36,72,172" id="路径_145" node-id="68" stroke="none" target-height="118.20001" target-width="25.799988" target-x="687.9" target-y="379.5"></path><path d="M 735.50 361.00 L 720.50 361.00 L 714.10 380.50 L 747.30 380.50 Z" fill="#1ca397" fill-rule="nonzero" group-id="5,11,36,73,173" id="路径_141" node-id="70" stroke="none" target-height="19.5" target-width="33.200012" target-x="714.1" target-y="361"></path><path d="M 697.10 500.10 L 762.70 500.10 L 747.30 380.30 L 713.40 380.30 Z" fill="#62d3cd" fill-rule="nonzero" group-id="5,11,36,73,174" id="路径_142" node-id="71" stroke="none" target-height="119.80002" target-width="65.60004" target-x="697.1" target-y="380.3"></path><path d="M 729.50 290.10 L 766.70 367.20" fill="none" group-id="5,11,36,74" id="路径_146" node-id="72" stroke="#707070" stroke-linecap="butt" stroke-width="1" target-height="77.100006" target-width="37.200012" target-x="729.5" target-y="290.1"></path><path d="M 748.30 379.30 L 729.10 291.20" fill="none" group-id="5,11,36,75" id="路径_147" node-id="73" stroke="#707070" stroke-linecap="butt" stroke-width="1" target-height="88.099976" target-width="19.200012" target-x="729.1" target-y="291.2"></path><path d="M 715.60 379.30 L 729.50 289.30" fill="none" group-id="5,11,36,76" id="路径_148" node-id="74" stroke="#707070" stroke-linecap="butt" stroke-width="1" target-height="90" target-width="13.900024" target-x="715.6" target-y="289.3"></path><path d="M 687.90 367.20 L 728.40 290.10" fill="none" group-id="5,11,36,77" id="路径_149" node-id="75" stroke="#707070" stroke-linecap="butt" stroke-width="1" target-height="77.100006" target-width="40.5" target-x="687.9" target-y="290.1"></path><path d="M 533.60 299.00 L 513.30 321.30 L 505.90 330.00 L 505.30 330.00 L 492.90 325.30 L 479.80 319.80 L 407.40 288.50 L 403.80 287.30 L 400.10 286.50 L 396.30 286.20 L 393.70 286.50 L 388.10 288.10 L 379.10 292.30 L 358.80 302.70 L 356.10 304.90 L 355.10 307.50 L 354.90 309.60 L 355.40 314.60 L 357.90 330.70 L 358.80 332.70 L 360.00 333.80 L 361.60 334.80 L 364.20 335.70 L 378.20 338.10 L 379.10 338.80 L 380.80 341.00 L 381.80 341.10 L 383.90 338.50 L 388.10 330.00 L 390.40 323.80 L 391.60 319.00 L 399.00 319.70 L 403.90 319.50 L 408.10 317.90 L 411.60 314.80 L 416.60 317.90 L 451.00 342.20 L 463.80 350.70 L 474.70 357.10 L 487.80 364.20 L 494.00 367.20 L 499.90 369.40 L 503.80 370.40 L 507.70 370.90 L 511.60 370.90 L 514.50 370.50 L 520.60 368.40 L 523.90 366.70 L 534.90 359.30 L 546.50 350.50 L 556.80 341.70 L 564.40 334.80 L 567.60 331.30 L 565.90 328.80 L 561.10 324.00 L 547.20 311.10 L 533.60 299.00 Z" fill="#fdbba6" fill-rule="nonzero" group-id="5,12,37" id="路径_135" node-id="77" stroke="none" target-height="84.69998" target-width="212.69998" target-x="354.9" target-y="286.2"></path><path d="M 380.80 304.60 L 376.90 307.90 L 375.40 310.50 L 374.70 337.70" fill="none" group-id="5,12,38" id="路径_136" node-id="78" stroke="#6b4848" stroke-linecap="butt" stroke-width="2" target-height="33.100006" target-width="6.0999756" target-x="374.7" target-y="304.6"></path><path d="M 369.90 310.70 L 368.30 321.60 L 368.10 324.50 L 368.50 325.10 L 369.40 325.40 L 371.80 325.60 L 375.20 325.20" fill="none" group-id="5,12,39" id="路径_137" node-id="79" stroke="#6b4848" stroke-linecap="butt" stroke-width="2" target-height="14.899994" target-width="7.100006" target-x="368.1" target-y="310.7"></path><path d="M 354.90 383.50 L 366.50 387.80 L 354.90 406.60 L 336.30 393.90 Z" fill="#4442ab" fill-rule="nonzero" group-id="5,12,40,78,175" id="路径_138-2" node-id="82" stroke="none" target-height="23.100006" target-width="30.200012" target-x="336.3" target-y="383.5"></path><path d="M 330.00 526.40 L 354.70 406.40 L 335.70 393.40 L 269.80 497.20 Z" fill="#746ceb" fill-rule="nonzero" group-id="5,12,40,78,176" id="路径_139-2" node-id="83" stroke="none" target-height="133.00003" target-width="84.900024" target-x="269.8" target-y="393.4"></path><path d="M 345.00 511.20 L 329.50 526.90 L 354.50 406.40 Z" fill="#4442ab" fill-rule="nonzero" group-id="5,12,40,78,177" id="路径_140-2" node-id="84" stroke="none" target-height="120.50003" target-width="25" target-x="329.5" target-y="406.4"></path><path d="M 381.30 387.80 L 397.20 383.30 L 413.90 393.60 L 388.30 406.90 Z" fill="#db4f4f" fill-rule="nonzero" group-id="5,12,40,79,178" id="路径_143-2" node-id="86" stroke="none" target-height="23.600006" target-width="32.600006" target-x="381.3" target-y="383.3"></path><path d="M 464.70 503.90 L 414.10 524.70 L 388.40 406.50 L 414.10 393.40 Z" fill="#ff7c7c" fill-rule="nonzero" group-id="5,12,40,79,179" id="路径_144-2" node-id="87" stroke="none" target-height="131.30002" target-width="76.30002" target-x="388.4" target-y="393.4"></path><path d="M 401.20 516.00 L 414.10 524.50 L 388.30 406.30 Z" fill="#d94848" fill-rule="nonzero" group-id="5,12,40,79,180" id="路径_145-2" node-id="88" stroke="none" target-height="118.20001" target-width="25.800018" target-x="388.3" target-y="406.3"></path><path d="M 366.50 387.80 L 381.50 387.80 L 387.90 407.30 L 354.70 407.30 Z" fill="#1ca397" fill-rule="nonzero" group-id="5,12,40,80,181" id="路径_141-2" node-id="90" stroke="none" target-height="19.5" target-width="33.19998" target-x="354.7" target-y="387.8"></path><path d="M 404.90 526.90 L 339.30 526.90 L 354.70 407.10 L 388.60 407.10 Z" fill="#62d3cd" fill-rule="nonzero" group-id="5,12,40,80,182" id="路径_142-2" node-id="91" stroke="none" target-height="119.80002" target-width="65.600006" target-x="339.3" target-y="407.1"></path><path d="M 372.10 315.90 L 335.30 394.00" fill="none" group-id="5,12,40,81" id="路径_146-2" node-id="92" stroke="#242228" stroke-linecap="butt" stroke-width="2" target-height="78.100006" target-width="36.80002" target-x="335.3" target-y="315.9"></path><path d="M 353.70 406.10 L 374.60 338.00" fill="none" group-id="5,12,40,82" id="路径_147-2" node-id="93" stroke="#242228" stroke-linecap="butt" stroke-width="2" target-height="68.100006" target-width="20.899994" target-x="353.7" target-y="338"></path><path d="M 386.40 406.10 L 382.80 340.00" fill="none" group-id="5,12,40,83" id="路径_148-2" node-id="94" stroke="#242228" stroke-linecap="butt" stroke-width="2" target-height="66.100006" target-width="3.600006" target-x="382.8" target-y="340"></path><path d="M 414.10 394.00 L 386.10 330.00" fill="none" group-id="5,12,40,84" id="路径_149-2" node-id="95" stroke="#242228" stroke-linecap="butt" stroke-width="2" target-height="64" target-width="28" target-x="386.1" target-y="330"></path><path d="M 596.70 378.40 L 592.00 413.20 L 684.70 416.20 L 690.30 404.70 L 690.30 381.60 Z" fill="#fcbaa5" fill-rule="nonzero" group-id="5,13,41" id="路径_154" node-id="97" stroke="none" target-height="37.80002" target-width="98.29999" target-x="592" target-y="378.4"></path><path d="M 600.80 235.70 L 591.80 236.30 L 583.30 238.40 L 577.90 240.50 L 572.70 243.20 L 567.90 246.50 L 564.50 249.30 L 558.50 255.70 L 541.20 280.20 L 529.30 295.90 L 569.90 335.30 L 582.40 323.50 L 589.20 383.00 L 616.60 386.00 L 632.40 387.20 L 648.20 387.80 L 661.80 387.30 L 673.00 386.10 L 686.90 384.00 L 690.50 383.00 L 692.50 382.10 L 694.00 380.50 L 700.50 350.40 L 701.10 349.00 L 705.40 341.20 L 709.40 332.10 L 711.10 326.90 L 712.30 319.80 L 712.30 316.20 L 712.00 312.60 L 711.00 309.20 L 709.50 305.80 L 700.20 290.20 L 715.40 270.90 L 698.90 254.30 L 690.30 246.50 L 686.10 243.10 L 682.70 240.70 L 679.20 238.80 L 671.30 235.50 L 659.60 232.30 L 651.40 230.70 L 654.70 236.90 L 657.10 243.20 L 657.90 247.90 L 657.90 250.40 L 657.50 252.70 L 656.60 255.10 L 655.20 257.50 L 654.20 258.50 L 651.50 259.70 L 647.10 259.70 L 640.90 258.10 L 630.40 253.70 L 619.60 247.90 L 610.10 242.00 L 600.80 235.70 Z" fill="#ff7c7c" fill-rule="nonzero" group-id="5,13,42" id="路径_131" node-id="98" stroke="none" target-height="157.09999" target-width="186.10004" target-x="529.3" target-y="230.7"></path><g clip-path="url(#clip-path-3)" group-id="5,13,43" id="蒙版组_19" node-id="99"><path d="M 590.40 243.00 L 590.10 245.10 L 589.30 247.00 L 588.20 248.70 L 586.60 249.90 L 584.90 250.70 L 582.90 251.00 L 580.90 250.70 L 579.10 249.90 L 577.60 248.70 L 576.40 247.00 L 575.60 245.10 L 575.40 243.00 L 575.60 240.90 L 576.40 239.00 L 577.60 237.30 L 579.10 236.10 L 580.90 235.30 L 582.90 235.00 L 584.90 235.30 L 586.60 236.10 L 588.20 237.30 L 589.30 239.00 L 590.10 240.90 L 590.40 243.00 Z" fill="#ffafaf" fill-rule="nonzero" group-id="5,13,43,85" id="椭圆_40" node-id="100" stroke="none" target-height="16" target-width="15" target-x="575.4" target-y="235"></path><path d="M 559.40 268.50 L 559.10 270.50 L 558.30 272.30 L 557.00 273.80 L 555.40 275.00 L 553.50 275.70 L 551.40 276.00 L 549.20 275.70 L 547.30 275.00 L 545.70 273.80 L 544.50 272.30 L 543.70 270.50 L 543.40 268.50 L 543.70 266.50 L 544.50 264.70 L 545.70 263.20 L 547.30 262.00 L 549.20 261.30 L 551.40 261.00 L 553.50 261.30 L 555.40 262.00 L 557.00 263.20 L 558.30 264.70 L 559.10 266.50 L 559.40 268.50 Z" fill="#ffafaf" fill-rule="nonzero" group-id="5,13,43,86" id="椭圆_41" node-id="101" stroke="none" target-height="15" target-width="16" target-x="543.4" target-y="261"></path><path d="M 593.40 281.00 L 593.10 283.10 L 592.30 285.00 L 591.00 286.70 L 589.40 287.90 L 587.50 288.70 L 585.40 289.00 L 583.20 288.70 L 581.30 287.90 L 579.70 286.70 L 578.50 285.00 L 577.70 283.10 L 577.40 281.00 L 577.70 278.90 L 578.50 277.00 L 579.70 275.30 L 581.30 274.10 L 583.20 273.30 L 585.40 273.00 L 587.50 273.30 L 589.40 274.10 L 591.00 275.30 L 592.30 277.00 L 593.10 278.90 L 593.40 281.00 Z" fill="#ffafaf" fill-rule="nonzero" group-id="5,13,43,87" id="椭圆_42" node-id="102" stroke="none" target-height="16" target-width="16" target-x="577.4" target-y="273"></path><path d="M 577.40 310.00 L 577.10 312.10 L 576.30 314.00 L 575.20 315.70 L 573.60 316.90 L 571.90 317.70 L 569.90 318.00 L 567.90 317.70 L 566.10 316.90 L 564.60 315.70 L 563.40 314.00 L 562.60 312.10 L 562.40 310.00 L 562.60 307.90 L 563.40 306.00 L 564.60 304.30 L 566.10 303.10 L 567.90 302.30 L 569.90 302.00 L 571.90 302.30 L 573.60 303.10 L 575.20 304.30 L 576.30 306.00 L 577.10 307.90 L 577.40 310.00 Z" fill="#ffafaf" fill-rule="nonzero" group-id="5,13,43,88" id="椭圆_43" node-id="103" stroke="none" target-height="16" target-width="15" target-x="562.4" target-y="302"></path><path d="M 606.40 310.00 L 606.10 312.10 L 605.30 314.00 L 604.00 315.70 L 602.40 316.90 L 600.50 317.70 L 598.40 318.00 L 596.20 317.70 L 594.30 316.90 L 592.70 315.70 L 591.50 314.00 L 590.70 312.10 L 590.40 310.00 L 590.70 307.90 L 591.50 306.00 L 592.70 304.30 L 594.30 303.10 L 596.20 302.30 L 598.40 302.00 L 600.50 302.30 L 602.40 303.10 L 604.00 304.30 L 605.30 306.00 L 606.10 307.90 L 606.40 310.00 Z" fill="#ffafaf" fill-rule="nonzero" group-id="5,13,43,89" id="椭圆_44" node-id="104" stroke="none" target-height="16" target-width="16" target-x="590.4" target-y="302"></path><path d="M 628.40 265.00 L 628.10 267.10 L 627.30 269.00 L 626.00 270.70 L 624.40 271.90 L 622.50 272.70 L 620.40 273.00 L 618.20 272.70 L 616.30 271.90 L 614.70 270.70 L 613.50 269.00 L 612.70 267.10 L 612.40 265.00 L 612.70 262.90 L 613.50 261.00 L 614.70 259.30 L 616.30 258.10 L 618.20 257.30 L 620.40 257.00 L 622.50 257.30 L 624.40 258.10 L 626.00 259.30 L 627.30 261.00 L 628.10 262.90 L 628.40 265.00 Z" fill="#ffafaf" fill-rule="nonzero" group-id="5,13,43,90" id="椭圆_45" node-id="105" stroke="none" target-height="16" target-width="16" target-x="612.4" target-y="257"></path><path d="M 667.40 249.00 L 667.10 251.10 L 666.30 253.00 L 665.00 254.70 L 663.40 255.90 L 661.50 256.70 L 659.40 257.00 L 657.20 256.70 L 655.30 255.90 L 653.70 254.70 L 652.50 253.00 L 651.70 251.10 L 651.40 249.00 L 651.70 246.90 L 652.50 245.00 L 653.70 243.30 L 655.30 242.10 L 657.20 241.30 L 659.40 241.00 L 661.50 241.30 L 663.40 242.10 L 665.00 243.30 L 666.30 245.00 L 667.10 246.90 L 667.40 249.00 Z" fill="#ffafaf" fill-rule="nonzero" group-id="5,13,43,91" id="椭圆_46" node-id="106" stroke="none" target-height="16" target-width="16" target-x="651.4" target-y="241"></path><path d="M 673.40 231.00 L 673.10 233.10 L 672.30 235.00 L 671.00 236.70 L 669.40 237.90 L 667.50 238.70 L 665.40 239.00 L 663.20 238.70 L 661.30 237.90 L 659.70 236.70 L 658.50 235.00 L 657.70 233.10 L 657.40 231.00 L 657.70 228.90 L 658.50 227.00 L 659.70 225.30 L 661.30 224.10 L 663.20 223.30 L 665.40 223.00 L 667.50 223.30 L 669.40 224.10 L 671.00 225.30 L 672.30 227.00 L 673.10 228.90 L 673.40 231.00 Z" fill="#ffafaf" fill-rule="nonzero" group-id="5,13,43,92" id="椭圆_47" node-id="107" stroke="none" target-height="16" target-width="16" target-x="657.4" target-y="223"></path><path d="M 697.40 248.00 L 697.10 249.90 L 696.40 251.50 L 695.30 252.90 L 693.90 254.00 L 692.20 254.70 L 690.40 255.00 L 688.50 254.70 L 686.80 254.00 L 685.40 252.90 L 684.30 251.50 L 683.60 249.90 L 683.40 248.00 L 683.60 246.10 L 684.30 244.50 L 685.40 243.10 L 686.80 242.00 L 688.50 241.30 L 690.40 241.00 L 692.20 241.30 L 693.90 242.00 L 695.30 243.10 L 696.40 244.50 L 697.10 246.10 L 697.40 248.00 Z" fill="#ffafaf" fill-rule="nonzero" group-id="5,13,43,93" id="椭圆_48" node-id="108" stroke="none" target-height="14" target-width="14" target-x="683.4" target-y="241"></path><path d="M 723.40 273.00 L 723.10 275.10 L 722.30 277.00 L 721.00 278.70 L 719.40 279.90 L 717.50 280.70 L 715.40 281.00 L 713.20 280.70 L 711.30 279.90 L 709.70 278.70 L 708.50 277.00 L 707.70 275.10 L 707.40 273.00 L 707.70 270.90 L 708.50 269.00 L 709.70 267.30 L 711.30 266.10 L 713.20 265.30 L 715.40 265.00 L 717.50 265.30 L 719.40 266.10 L 721.00 267.30 L 722.30 269.00 L 723.10 270.90 L 723.40 273.00 Z" fill="#ffafaf" fill-rule="nonzero" group-id="5,13,43,94" id="椭圆_49" node-id="109" stroke="none" target-height="16" target-width="16" target-x="707.4" target-y="265"></path><path d="M 695.40 271.00 L 695.10 273.10 L 694.30 275.00 L 693.00 276.70 L 691.40 277.90 L 689.50 278.70 L 687.40 279.00 L 685.20 278.70 L 683.30 277.90 L 681.70 276.70 L 680.50 275.00 L 679.70 273.10 L 679.40 271.00 L 679.70 268.90 L 680.50 267.00 L 681.70 265.30 L 683.30 264.10 L 685.20 263.30 L 687.40 263.00 L 689.50 263.30 L 691.40 264.10 L 693.00 265.30 L 694.30 267.00 L 695.10 268.90 L 695.40 271.00 Z" fill="#ffafaf" fill-rule="nonzero" group-id="5,13,43,95" id="椭圆_50" node-id="110" stroke="none" target-height="16" target-width="16" target-x="679.4" target-y="263"></path><path d="M 701.40 292.00 L 701.10 294.10 L 700.30 296.00 L 699.00 297.70 L 697.40 298.90 L 695.50 299.70 L 693.40 300.00 L 691.20 299.70 L 689.30 298.90 L 687.70 297.70 L 686.50 296.00 L 685.70 294.10 L 685.40 292.00 L 685.70 289.90 L 686.50 288.00 L 687.70 286.30 L 689.30 285.10 L 691.20 284.30 L 693.40 284.00 L 695.50 284.30 L 697.40 285.10 L 699.00 286.30 L 700.30 288.00 L 701.10 289.90 L 701.40 292.00 Z" fill="#ffafaf" fill-rule="nonzero" group-id="5,13,43,96" id="椭圆_51" node-id="111" stroke="none" target-height="16" target-width="16" target-x="685.4" target-y="284"></path><path d="M 666.40 273.50 L 666.10 275.50 L 665.30 277.30 L 664.20 278.80 L 662.60 280.00 L 660.90 280.70 L 658.90 281.00 L 656.90 280.70 L 655.10 280.00 L 653.60 278.80 L 652.40 277.30 L 651.60 275.50 L 651.40 273.50 L 651.60 271.50 L 652.40 269.70 L 653.60 268.20 L 655.10 267.00 L 656.90 266.30 L 658.90 266.00 L 660.90 266.30 L 662.60 267.00 L 664.20 268.20 L 665.30 269.70 L 666.10 271.50 L 666.40 273.50 Z" fill="#ffafaf" fill-rule="nonzero" group-id="5,13,43,97" id="椭圆_52" node-id="112" stroke="none" target-height="15" target-width="15" target-x="651.4" target-y="266"></path><path d="M 646.40 297.50 L 646.10 299.50 L 645.30 301.30 L 644.20 302.80 L 642.60 304.00 L 640.90 304.70 L 638.90 305.00 L 636.90 304.70 L 635.10 304.00 L 633.60 302.80 L 632.40 301.30 L 631.60 299.50 L 631.40 297.50 L 631.60 295.50 L 632.40 293.70 L 633.60 292.20 L 635.10 291.00 L 636.90 290.30 L 638.90 290.00 L 640.90 290.30 L 642.60 291.00 L 644.20 292.20 L 645.30 293.70 L 646.10 295.50 L 646.40 297.50 Z" fill="#ffafaf" fill-rule="nonzero" group-id="5,13,43,98" id="椭圆_53" node-id="113" stroke="none" target-height="15" target-width="15" target-x="631.4" target-y="290"></path><path d="M 681.40 304.00 L 681.10 306.10 L 680.30 308.00 L 679.00 309.70 L 677.40 310.90 L 675.50 311.70 L 673.40 312.00 L 671.20 311.70 L 669.30 310.90 L 667.70 309.70 L 666.50 308.00 L 665.70 306.10 L 665.40 304.00 L 665.70 301.90 L 666.50 300.00 L 667.70 298.30 L 669.30 297.10 L 671.20 296.30 L 673.40 296.00 L 675.50 296.30 L 677.40 297.10 L 679.00 298.30 L 680.30 300.00 L 681.10 301.90 L 681.40 304.00 Z" fill="#ffafaf" fill-rule="nonzero" group-id="5,13,43,99" id="椭圆_54" node-id="114" stroke="none" target-height="16" target-width="16" target-x="665.4" target-y="296"></path><path d="M 718.40 322.00 L 718.10 324.10 L 717.30 326.00 L 716.20 327.70 L 714.60 328.90 L 712.90 329.70 L 710.90 330.00 L 708.90 329.70 L 707.10 328.90 L 705.60 327.70 L 704.40 326.00 L 703.60 324.10 L 703.40 322.00 L 703.60 319.90 L 704.40 318.00 L 705.60 316.30 L 707.10 315.10 L 708.90 314.30 L 710.90 314.00 L 712.90 314.30 L 714.60 315.10 L 716.20 316.30 L 717.30 318.00 L 718.10 319.90 L 718.40 322.00 Z" fill="#ffafaf" fill-rule="nonzero" group-id="5,13,43,100" id="椭圆_55" node-id="115" stroke="none" target-height="16" target-width="15" target-x="703.4" target-y="314"></path><path d="M 688.40 331.00 L 688.10 333.10 L 687.30 335.00 L 686.00 336.70 L 684.40 337.90 L 682.50 338.70 L 680.40 339.00 L 678.20 338.70 L 676.30 337.90 L 674.70 336.70 L 673.50 335.00 L 672.70 333.10 L 672.40 331.00 L 672.70 328.90 L 673.50 327.00 L 674.70 325.30 L 676.30 324.10 L 678.20 323.30 L 680.40 323.00 L 682.50 323.30 L 684.40 324.10 L 686.00 325.30 L 687.30 327.00 L 688.10 328.90 L 688.40 331.00 Z" fill="#ffafaf" fill-rule="nonzero" group-id="5,13,43,101" id="椭圆_56" node-id="116" stroke="none" target-height="16" target-width="16" target-x="672.4" target-y="323"></path><path d="M 636.40 325.50 L 636.10 327.50 L 635.30 329.30 L 634.00 330.80 L 632.40 332.00 L 630.50 332.70 L 628.40 333.00 L 626.20 332.70 L 624.30 332.00 L 622.70 330.80 L 621.50 329.30 L 620.70 327.50 L 620.40 325.50 L 620.70 323.50 L 621.50 321.70 L 622.70 320.20 L 624.30 319.00 L 626.20 318.30 L 628.40 318.00 L 630.50 318.30 L 632.40 319.00 L 634.00 320.20 L 635.30 321.70 L 636.10 323.50 L 636.40 325.50 Z" fill="#ffafaf" fill-rule="nonzero" group-id="5,13,43,102" id="椭圆_57" node-id="117" stroke="none" target-height="15" target-width="16" target-x="620.4" target-y="318"></path><path d="M 658.40 339.00 L 658.10 340.90 L 657.40 342.50 L 656.30 343.90 L 654.90 345.00 L 653.20 345.70 L 651.40 346.00 L 649.50 345.70 L 647.80 345.00 L 646.40 343.90 L 645.30 342.50 L 644.60 340.90 L 644.40 339.00 L 644.60 337.10 L 645.30 335.50 L 646.40 334.10 L 647.80 333.00 L 649.50 332.30 L 651.40 332.00 L 653.20 332.30 L 654.90 333.00 L 656.30 334.10 L 657.40 335.50 L 658.10 337.10 L 658.40 339.00 Z" fill="#ffafaf" fill-rule="nonzero" group-id="5,13,43,103" id="椭圆_58" node-id="118" stroke="none" target-height="14" target-width="14" target-x="644.4" target-y="332"></path><path d="M 628.40 348.00 L 628.10 349.90 L 627.40 351.50 L 626.30 352.90 L 624.90 354.00 L 623.20 354.70 L 621.40 355.00 L 619.50 354.70 L 617.80 354.00 L 616.40 352.90 L 615.30 351.50 L 614.60 349.90 L 614.40 348.00 L 614.60 346.10 L 615.30 344.50 L 616.40 343.10 L 617.80 342.00 L 619.50 341.30 L 621.40 341.00 L 623.20 341.30 L 624.90 342.00 L 626.30 343.10 L 627.40 344.50 L 628.10 346.10 L 628.40 348.00 Z" fill="#ffafaf" fill-rule="nonzero" group-id="5,13,43,104" id="椭圆_59" node-id="119" stroke="none" target-height="14" target-width="14" target-x="614.4" target-y="341"></path><path d="M 593.40 335.00 L 593.10 336.90 L 592.40 338.50 L 591.30 339.90 L 589.90 341.00 L 588.20 341.70 L 586.40 342.00 L 584.50 341.70 L 582.80 341.00 L 581.40 339.90 L 580.30 338.50 L 579.60 336.90 L 579.40 335.00 L 579.60 333.10 L 580.30 331.50 L 581.40 330.10 L 582.80 329.00 L 584.50 328.30 L 586.40 328.00 L 588.20 328.30 L 589.90 329.00 L 591.30 330.10 L 592.40 331.50 L 593.10 333.10 L 593.40 335.00 Z" fill="#ffafaf" fill-rule="nonzero" group-id="5,13,43,105" id="椭圆_60" node-id="120" stroke="none" target-height="14" target-width="14" target-x="579.4" target-y="328"></path><path d="M 612.40 362.00 L 612.10 363.90 L 611.40 365.50 L 610.30 366.90 L 608.90 368.00 L 607.20 368.70 L 605.40 369.00 L 603.50 368.70 L 601.80 368.00 L 600.40 366.90 L 599.30 365.50 L 598.60 363.90 L 598.40 362.00 L 598.60 360.10 L 599.30 358.50 L 600.40 357.10 L 601.80 356.00 L 603.50 355.30 L 605.40 355.00 L 607.20 355.30 L 608.90 356.00 L 610.30 357.10 L 611.40 358.50 L 612.10 360.10 L 612.40 362.00 Z" fill="#ffafaf" fill-rule="nonzero" group-id="5,13,43,106" id="椭圆_61" node-id="121" stroke="none" target-height="14" target-width="14" target-x="598.4" target-y="355"></path><path d="M 600.40 383.00 L 600.10 384.90 L 599.40 386.50 L 598.30 387.90 L 596.90 389.00 L 595.20 389.70 L 593.40 390.00 L 591.50 389.70 L 589.80 389.00 L 588.40 387.90 L 587.30 386.50 L 586.60 384.90 L 586.40 383.00 L 586.60 381.10 L 587.30 379.50 L 588.40 378.10 L 589.80 377.00 L 591.50 376.30 L 593.40 376.00 L 595.20 376.30 L 596.90 377.00 L 598.30 378.10 L 599.40 379.50 L 600.10 381.10 L 600.40 383.00 Z" fill="#ffafaf" fill-rule="nonzero" group-id="5,13,43,107" id="椭圆_62" node-id="122" stroke="none" target-height="14" target-width="14" target-x="586.4" target-y="376"></path><path d="M 632.40 384.00 L 632.10 385.90 L 631.40 387.50 L 630.30 388.90 L 628.90 390.00 L 627.20 390.70 L 625.40 391.00 L 623.50 390.70 L 621.80 390.00 L 620.40 388.90 L 619.30 387.50 L 618.60 385.90 L 618.40 384.00 L 618.60 382.10 L 619.30 380.50 L 620.40 379.10 L 621.80 378.00 L 623.50 377.30 L 625.40 377.00 L 627.20 377.30 L 628.90 378.00 L 630.30 379.10 L 631.40 380.50 L 632.10 382.10 L 632.40 384.00 Z" fill="#ffafaf" fill-rule="nonzero" group-id="5,13,43,108" id="椭圆_63" node-id="123" stroke="none" target-height="14" target-width="14" target-x="618.4" target-y="377"></path><path d="M 660.40 368.50 L 660.10 370.50 L 659.40 372.30 L 658.30 373.80 L 656.90 375.00 L 655.20 375.70 L 653.40 376.00 L 651.50 375.70 L 649.80 375.00 L 648.40 373.80 L 647.30 372.30 L 646.60 370.50 L 646.40 368.50 L 646.60 366.50 L 647.30 364.70 L 648.40 363.20 L 649.80 362.00 L 651.50 361.30 L 653.40 361.00 L 655.20 361.30 L 656.90 362.00 L 658.30 363.20 L 659.40 364.70 L 660.10 366.50 L 660.40 368.50 Z" fill="#ffafaf" fill-rule="nonzero" group-id="5,13,43,109" id="椭圆_64" node-id="124" stroke="none" target-height="15" target-width="14" target-x="646.4" target-y="361"></path><path d="M 684.40 383.00 L 684.10 384.90 L 683.40 386.50 L 682.30 387.90 L 680.90 389.00 L 679.20 389.70 L 677.40 390.00 L 675.50 389.70 L 673.80 389.00 L 672.40 387.90 L 671.30 386.50 L 670.60 384.90 L 670.40 383.00 L 670.60 381.10 L 671.30 379.50 L 672.40 378.10 L 673.80 377.00 L 675.50 376.30 L 677.40 376.00 L 679.20 376.30 L 680.90 377.00 L 682.30 378.10 L 683.40 379.50 L 684.10 381.10 L 684.40 383.00 Z" fill="#ffafaf" fill-rule="nonzero" group-id="5,13,43,110" id="椭圆_65" node-id="125" stroke="none" target-height="14" target-width="14" target-x="670.4" target-y="376"></path><path d="M 701.40 360.00 L 701.10 361.90 L 700.40 363.50 L 699.30 364.90 L 697.90 366.00 L 696.20 366.70 L 694.40 367.00 L 692.50 366.70 L 690.80 366.00 L 689.40 364.90 L 688.30 363.50 L 687.60 361.90 L 687.40 360.00 L 687.60 358.10 L 688.30 356.50 L 689.40 355.10 L 690.80 354.00 L 692.50 353.30 L 694.40 353.00 L 696.20 353.30 L 697.90 354.00 L 699.30 355.10 L 700.40 356.50 L 701.10 358.10 L 701.40 360.00 Z" fill="#ffafaf" fill-rule="nonzero" group-id="5,13,43,111" id="椭圆_66" node-id="126" stroke="none" target-height="14" target-width="14" target-x="687.4" target-y="353"></path><path d="M 579.60 325.50 L 595.10 307.20 L 581.70 326.70 Z" fill="#f34d44" fill-rule="nonzero" group-id="5,13,43,112" id="路径_132" node-id="127" stroke="none" target-height="19.5" target-width="15.5" target-x="579.6" target-y="307.2"></path><path d="M 670.30 255.00 L 700.80 291.10 L 703.10 286.50 Z" fill="#f34d44" fill-rule="nonzero" group-id="5,13,43,113" id="路径_133" node-id="128" stroke="none" target-height="36.100006" target-width="32.799988" target-x="670.3" target-y="255"></path></g><path d="M 592.60 403.20 L 630.70 407.80 L 644.70 409.10 L 662.00 410.10 L 671.70 409.30 L 677.90 408.30 L 684.00 406.80 L 690.00 405.00 L 692.90 417.60 L 695.00 437.30 L 695.40 450.60 L 695.00 473.90 L 692.90 507.90 L 690.60 528.40 L 686.60 553.30 L 681.50 581.00 L 675.80 609.70 L 659.70 683.90 L 650.00 726.30 L 621.10 845.80 L 618.00 845.90 L 599.50 843.30 L 577.10 839.20 L 569.30 837.50 L 566.10 836.50 L 573.50 801.70 L 595.30 703.50 L 595.30 559.40 L 531.30 626.00 L 508.90 648.70 L 503.20 654.10 L 492.30 663.70 L 484.10 669.50 L 476.70 673.20 L 472.80 674.40 L 468.70 675.20 L 464.30 675.40 L 461.00 675.20 L 457.60 674.50 L 454.10 673.40 L 450.30 671.70 L 445.90 669.30 L 433.60 660.80 L 409.90 642.30 L 392.80 628.20 L 360.80 600.60 L 336.80 579.30 L 361.80 544.20 L 390.80 557.50 L 407.70 565.70 L 432.80 578.90 L 446.20 587.00 L 450.80 590.40 L 453.40 592.80 L 454.90 594.60 L 455.50 595.90 L 463.40 583.80 L 513.20 503.40 L 529.90 477.70 L 535.80 469.20 L 548.30 452.90 L 555.00 445.10 L 561.90 437.90 L 569.00 431.30 L 574.60 426.60 L 580.50 422.40 L 586.40 418.60 L 592.60 415.30 L 592.60 403.20 Z" fill="#e7e7e9" fill-rule="nonzero" group-id="5,14,44" id="路径_155" node-id="130" stroke="none" target-height="442.7" target-width="358.60004" target-x="336.8" target-y="403.2"></path><g clip-path="url(#clip-path-4)" group-id="5,14,45" id="蒙版组_20" node-id="131"><path d="M 588.80 414.00 L 611.00 416.10 L 609.60 431.00 L 571.90 426.40 Z" fill="#584a42" fill-rule="nonzero" group-id="5,14,45,114" id="路径_156" node-id="132" stroke="none" target-height="17" target-width="39.099976" target-x="571.9" target-y="414"></path><path d="M 618.00 417.00 L 618.00 431.30 L 695.50 431.30 L 693.90 417.00 Z" fill="#584a42" fill-rule="nonzero" group-id="5,14,45,115" id="路径_157" node-id="133" stroke="none" target-height="14.299988" target-width="77.5" target-x="618" target-y="417"></path><path d="M 684.40 424.50 L 684.10 426.70 L 683.30 428.80 L 682.00 430.80 L 680.30 432.50 L 678.20 434.00 L 673.00 436.20 L 666.90 437.00 L 660.70 436.20 L 655.50 434.00 L 653.40 432.50 L 651.80 430.80 L 650.40 428.80 L 649.60 426.70 L 649.40 424.50 L 649.60 422.30 L 650.40 420.20 L 651.80 418.20 L 653.40 416.50 L 655.50 415.00 L 658.00 413.70 L 660.70 412.80 L 666.90 412.00 L 673.00 412.80 L 678.20 415.00 L 680.30 416.50 L 682.00 418.20 L 683.30 420.20 L 684.10 422.30 L 684.40 424.50 Z" fill="#ffbf70" fill-rule="nonzero" group-id="5,14,45,116" id="椭圆_67" node-id="134" stroke="none" target-height="25" target-width="35" target-x="649.4" target-y="412"></path><path d="M 586.40 428.50 L 575.50 437.90 L 558.70 453.80 L 546.50 466.90 L 541.00 473.70" fill="none" group-id="5,14,45,117" id="路径_158" node-id="135" stroke="#584a42" stroke-linecap="round" stroke-width="3" target-height="45.200012" target-width="45.400024" target-x="541" target-y="428.5"></path><path d="M 557.20 454.90 L 562.20 456.00 L 570.60 457.00 L 576.00 457.10 L 581.60 456.80 L 588.00 455.90 L 596.60 453.70 L 601.30 452.00 L 605.70 449.90 L 610.20 447.30 L 614.90 444.10" fill="none" group-id="5,14,45,118" id="路径_159" node-id="136" stroke="#584a42" stroke-linecap="round" stroke-width="3" target-height="13" target-width="57.700012" target-x="557.2" target-y="444.1"></path><path d="M 597.80 556.20 L 653.00 497.40 L 694.50 490.10 L 694.50 509.40 L 656.60 510.60 Z" fill="#cdcdcf" fill-rule="nonzero" group-id="5,14,45,119" id="路径_160" node-id="137" stroke="none" target-height="66.100006" target-width="96.70001" target-x="597.8" target-y="490.1"></path></g><path d="M 346.10 205.00 L 345.70 209.20 L 344.90 213.20 L 343.50 217.00 L 341.60 220.60 L 339.40 223.80 L 336.80 226.70 L 333.80 229.30 L 330.50 231.50 L 327.00 233.20 L 323.20 234.50 L 319.20 235.20 L 315.00 235.50 L 310.90 235.10 L 306.90 234.20 L 303.20 232.80 L 299.70 231.00 L 296.50 228.70 L 293.60 226.00 L 291.10 223.00 L 289.00 219.70 L 287.20 216.00 L 286.00 212.20 L 285.30 208.20 L 285.10 203.90 L 285.40 199.70 L 286.30 195.70 L 287.70 191.90 L 289.50 188.30 L 291.70 185.10 L 294.40 182.20 L 297.30 179.60 L 300.60 177.40 L 304.20 175.70 L 307.90 174.40 L 311.90 173.70 L 316.10 173.40 L 320.30 173.80 L 324.20 174.70 L 327.90 176.10 L 331.40 178.00 L 334.60 180.20 L 337.50 182.90 L 340.10 185.90 L 342.20 189.20 L 343.90 192.90 L 345.10 196.70 L 345.90 200.70 L 346.10 205.00 Z" fill="#e8b124" fill-rule="nonzero" group-id="5,15" id="椭圆_23" node-id="139" stroke="none" target-height="62.100006" target-width="61" target-x="285.1" target-y="173.4"></path><g clip-path="url(#clip-path-5_3)" group-id="5,15,46" id="蒙版组_7" node-id="140"><path d="M 294.80 205.30 L 285.50 215.40" fill="none" group-id="5,15,46,120" id="路径_43" node-id="141" stroke="#aa5c10" stroke-linecap="butt" stroke-width="2.000289" target-height="10.099991" target-width="9.299988" target-x="285.5" target-y="205.3"></path><path d="M 302.90 216.50 L 292.40 227.30" fill="none" group-id="5,15,46,121" id="路径_44" node-id="142" stroke="#aa5c10" stroke-linecap="butt" stroke-width="2.000289" target-height="10.800003" target-width="10.5" target-x="292.4" target-y="216.5"></path><path d="M 312.90 224.30 L 304.50 234.50" fill="none" group-id="5,15,46,122" id="路径_45" node-id="143" stroke="#aa5c10" stroke-linecap="butt" stroke-width="2.000289" target-height="10.199997" target-width="8.399994" target-x="304.5" target-y="224.3"></path><path d="M 322.30 225.20 L 316.80 236.30" fill="none" group-id="5,15,46,123" id="路径_46" node-id="144" stroke="#aa5c10" stroke-linecap="butt" stroke-width="2.000289" target-height="11.100006" target-width="5.5" target-x="316.8" target-y="225.2"></path><path d="M 332.80 220.40 L 328.20 234.10" fill="none" group-id="5,15,46,124" id="路径_47" node-id="145" stroke="#aa5c10" stroke-linecap="butt" stroke-width="2.000289" target-height="13.700012" target-width="4.5999756" target-x="328.2" target-y="220.4"></path></g><path d="M 344.20 201.00 L 343.90 204.70 L 343.00 208.20 L 341.80 211.50 L 340.10 214.60 L 338.00 217.40 L 335.50 220.00 L 332.70 222.20 L 329.70 224.10 L 326.30 225.60 L 322.80 226.70 L 319.10 227.40 L 315.20 227.60 L 311.30 227.30 L 307.60 226.50 L 304.10 225.30 L 300.80 223.60 L 297.80 221.60 L 295.10 219.30 L 292.70 216.70 L 290.80 213.80 L 289.20 210.60 L 288.00 207.30 L 287.30 203.70 L 287.10 200.00 L 287.40 196.30 L 288.20 192.80 L 289.50 189.50 L 291.20 186.40 L 293.30 183.60 L 295.80 181.00 L 298.60 178.80 L 301.60 176.90 L 305.00 175.40 L 308.50 174.30 L 312.20 173.60 L 316.10 173.40 L 320.00 173.80 L 323.70 174.50 L 327.20 175.80 L 330.50 177.40 L 333.50 179.40 L 336.20 181.70 L 338.50 184.40 L 340.50 187.30 L 342.10 190.40 L 343.30 193.80 L 344.00 197.30 L 344.20 201.00 Z" fill="#fbe14b" fill-rule="nonzero" group-id="5,15,47" id="椭圆_24" node-id="146" stroke="none" target-height="54.200012" target-width="57.100006" target-x="287.1" target-y="173.4"></path><path d="M 342.20 200.00 L 341.90 203.20 L 341.30 206.10 L 340.10 209.00 L 336.90 214.00 L 334.80 216.20 L 329.70 219.70 L 326.80 221.00 L 323.80 222.00 L 320.60 222.50 L 317.20 222.70 L 313.90 222.40 L 310.70 221.80 L 307.70 220.70 L 304.80 219.30 L 299.90 215.60 L 297.90 213.40 L 294.80 208.20 L 293.80 205.30 L 293.20 202.30 L 293.00 199.10 L 293.30 196.00 L 294.00 193.00 L 295.10 190.20 L 298.40 185.10 L 300.50 182.90 L 305.50 179.40 L 308.40 178.10 L 311.40 177.10 L 314.60 176.60 L 318.00 176.40 L 321.40 176.70 L 324.60 177.40 L 327.60 178.40 L 330.40 179.80 L 335.30 183.50 L 337.40 185.80 L 340.50 190.90 L 341.50 193.80 L 342.10 196.80 L 342.20 200.00 Z" fill="none" group-id="5,15,48" node-id="699" stroke="none" target-height="46.300003" target-width="49.200012" target-x="293" target-y="176.4"></path><path d="M 341.20 200.00 L 340.90 203.00 L 340.30 205.90 L 339.20 208.50 L 337.80 211.10 L 334.10 215.50 L 329.20 218.90 L 326.50 220.10 L 320.50 221.50 L 317.20 221.70 L 314.00 221.40 L 308.10 219.80 L 305.40 218.50 L 300.60 214.90 L 297.00 210.40 L 295.70 207.80 L 294.80 205.10 L 294.20 202.20 L 294.00 199.20 L 294.30 196.10 L 295.00 193.30 L 296.00 190.60 L 297.40 188.00 L 301.20 183.60 L 306.00 180.20 L 308.80 179.00 L 314.70 177.60 L 318.00 177.40 L 321.30 177.70 L 327.20 179.30 L 329.90 180.70 L 334.60 184.20 L 338.20 188.70 L 339.50 191.30 L 340.50 194.00 L 341.10 196.90 L 341.20 200.00 Z" fill="none" group-id="5,15,48" node-id="701" stroke="#aa5c10" stroke-linecap="butt" stroke-width="2.000289" target-height="44.300003" target-width="47.200012" target-x="294" target-y="177.4"></path><path d="M 331.60 192.90 L 322.20 198.00" fill="none" group-id="5,15,49,125" id="路径_38" node-id="151" stroke="#aa5c10" stroke-linecap="round" stroke-width="4.000578" target-height="5.100006" target-width="9.399994" target-x="322.2" target-y="192.9"></path><path d="M 327.70 207.40 L 322.20 198.20" fill="none" group-id="5,15,49,126" id="路径_39" node-id="152" stroke="#aa5c10" stroke-linecap="round" stroke-width="4.000578" target-height="9.199997" target-width="5.5" target-x="322.2" target-y="198.2"></path><path d="M 325.30 186.70 L 319.30 209.00" fill="none" group-id="5,15,49,127" id="路径_40" node-id="153" stroke="#aa5c10" stroke-linecap="round" stroke-width="4.000578" target-height="22.300003" target-width="6" target-x="319.3" target-y="186.7"></path><path d="M 316.70 184.40 L 310.70 206.70" fill="none" group-id="5,15,49,128" id="路径_41" node-id="154" stroke="#aa5c10" stroke-linecap="round" stroke-width="4.000578" target-height="22.300003" target-width="6" target-x="310.7" target-y="184.4"></path><path d="M 300.20 192.00 L 322.10 197.80" fill="none" group-id="5,15,49,129" id="路径_42" node-id="155" stroke="#aa5c10" stroke-linecap="round" stroke-width="4.000578" target-height="5.800003" target-width="21.899994" target-x="300.2" target-y="192"></path><path d="M 398.40 766.00 L 398.00 770.30 L 397.20 774.30 L 395.80 778.10 L 393.90 781.60 L 391.70 784.90 L 389.10 787.80 L 386.10 790.40 L 382.80 792.50 L 379.30 794.30 L 375.50 795.60 L 371.50 796.30 L 367.30 796.50 L 363.20 796.20 L 359.20 795.30 L 355.50 793.90 L 352.00 792.00 L 348.80 789.80 L 345.90 787.10 L 343.40 784.10 L 341.30 780.70 L 339.50 777.10 L 338.30 773.30 L 337.60 769.30 L 337.40 765.00 L 337.70 760.70 L 338.60 756.70 L 340.00 753.00 L 341.80 749.40 L 344.00 746.20 L 346.70 743.20 L 349.60 740.60 L 352.90 738.50 L 356.50 736.70 L 360.20 735.50 L 364.20 734.70 L 368.40 734.50 L 372.60 734.90 L 376.50 735.80 L 380.20 737.10 L 383.70 739.00 L 386.90 741.30 L 389.80 744.00 L 392.40 747.00 L 394.50 750.30 L 396.20 753.90 L 397.40 757.70 L 398.20 761.80 L 398.40 766.00 Z" fill="#e8b124" fill-rule="nonzero" group-id="5,16" id="椭圆_23-2" node-id="157" stroke="none" target-height="62" target-width="61" target-x="337.4" target-y="734.5"></path><g clip-path="url(#clip-path-5_4)" group-id="5,16,50" id="蒙版组_7-2" node-id="158"><path d="M 347.10 766.40 L 337.80 776.40" fill="none" group-id="5,16,50,130" id="路径_43-2" node-id="159" stroke="#aa5c10" stroke-linecap="butt" stroke-width="2.000289" target-height="10" target-width="9.300018" target-x="337.8" target-y="766.4"></path><path d="M 355.20 777.60 L 344.70 788.40" fill="none" group-id="5,16,50,131" id="路径_44-2" node-id="160" stroke="#aa5c10" stroke-linecap="butt" stroke-width="2.000289" target-height="10.800049" target-width="10.5" target-x="344.7" target-y="777.6"></path><path d="M 365.20 785.40 L 356.80 795.50" fill="none" group-id="5,16,50,132" id="路径_45-2" node-id="161" stroke="#aa5c10" stroke-linecap="butt" stroke-width="2.000289" target-height="10.099976" target-width="8.400024" target-x="356.8" target-y="785.4"></path><path d="M 374.60 786.30 L 369.10 797.40" fill="none" group-id="5,16,50,133" id="路径_46-2" node-id="162" stroke="#aa5c10" stroke-linecap="butt" stroke-width="2.000289" target-height="11.100037" target-width="5.5" target-x="369.1" target-y="786.3"></path><path d="M 385.10 781.50 L 380.50 795.20" fill="none" group-id="5,16,50,134" id="路径_47-2" node-id="163" stroke="#aa5c10" stroke-linecap="butt" stroke-width="2.000289" target-height="13.700012" target-width="4.600006" target-x="380.5" target-y="781.5"></path></g><path d="M 396.50 762.10 L 396.20 765.80 L 395.30 769.30 L 394.10 772.60 L 392.30 775.70 L 390.30 778.50 L 387.80 781.10 L 385.00 783.30 L 382.00 785.20 L 378.60 786.70 L 375.10 787.80 L 371.40 788.50 L 367.50 788.70 L 363.60 788.30 L 359.90 787.60 L 356.40 786.30 L 353.10 784.70 L 350.10 782.70 L 347.40 780.40 L 345.00 777.70 L 343.10 774.80 L 341.50 771.70 L 340.30 768.30 L 339.60 764.80 L 339.40 761.10 L 339.70 757.40 L 340.50 753.90 L 341.80 750.60 L 343.50 747.50 L 345.60 744.70 L 348.10 742.10 L 350.80 739.90 L 353.90 738.00 L 357.20 736.40 L 360.80 735.40 L 364.50 734.70 L 368.40 734.50 L 372.30 734.80 L 376.00 735.60 L 379.50 736.80 L 382.80 738.50 L 385.80 740.50 L 388.40 742.80 L 390.80 745.40 L 392.80 748.30 L 394.40 751.50 L 395.60 754.80 L 396.30 758.30 L 396.50 762.10 Z" fill="#fbe14b" fill-rule="nonzero" group-id="5,16,51" id="椭圆_24-2" node-id="164" stroke="none" target-height="54.200012" target-width="57.100006" target-x="339.4" target-y="734.5"></path><path d="M 394.50 761.00 L 394.20 764.20 L 393.50 767.20 L 392.40 770.00 L 391.00 772.70 L 389.20 775.10 L 387.00 777.30 L 382.00 780.80 L 379.10 782.10 L 376.10 783.00 L 372.90 783.60 L 369.50 783.80 L 366.10 783.50 L 363.00 782.80 L 360.00 781.80 L 354.60 778.70 L 350.20 774.40 L 348.50 772.00 L 347.10 769.30 L 346.10 766.40 L 345.50 763.40 L 345.30 760.20 L 345.60 757.00 L 346.30 754.10 L 347.40 751.20 L 350.70 746.20 L 355.20 742.10 L 360.70 739.20 L 363.70 738.20 L 366.90 737.70 L 370.30 737.50 L 373.70 737.80 L 376.90 738.40 L 379.90 739.50 L 382.70 740.90 L 387.60 744.60 L 389.70 746.80 L 392.80 752.00 L 393.80 754.90 L 394.40 757.90 L 394.50 761.00 Z" fill="none" group-id="5,16,52" node-id="756" stroke="none" target-height="46.299988" target-width="49.200012" target-x="345.3" target-y="737.5"></path><path d="M 393.50 761.00 L 393.20 764.10 L 392.60 766.90 L 391.50 769.60 L 390.10 772.10 L 386.40 776.60 L 381.50 779.90 L 378.80 781.20 L 372.80 782.60 L 369.50 782.80 L 363.20 781.90 L 360.40 780.90 L 355.20 777.90 L 352.90 776.00 L 349.30 771.50 L 348.00 768.90 L 347.10 766.20 L 346.50 763.30 L 346.30 760.20 L 346.60 757.20 L 347.30 754.30 L 348.30 751.60 L 351.50 746.80 L 355.80 742.90 L 361.10 740.10 L 367.00 738.70 L 370.30 738.50 L 373.60 738.80 L 379.50 740.40 L 382.20 741.70 L 386.90 745.30 L 390.50 749.80 L 391.80 752.40 L 392.80 755.10 L 393.30 758.00 L 393.50 761.00 Z" fill="none" group-id="5,16,52" node-id="758" stroke="#aa5c10" stroke-linecap="butt" stroke-width="2.000289" target-height="44.299988" target-width="47.200012" target-x="346.3" target-y="738.5"></path><path d="M 383.90 753.90 L 374.50 759.10" fill="none" group-id="5,16,53,135" id="路径_38-2" node-id="169" stroke="#aa5c10" stroke-linecap="round" stroke-width="4.000578" target-height="5.199951" target-width="9.399994" target-x="374.5" target-y="753.9"></path><path d="M 380.00 768.40 L 374.50 759.30" fill="none" group-id="5,16,53,136" id="路径_39-2" node-id="170" stroke="#aa5c10" stroke-linecap="round" stroke-width="4.000578" target-height="9.100037" target-width="5.5" target-x="374.5" target-y="759.3"></path><path d="M 377.60 747.70 L 371.60 770.10" fill="none" group-id="5,16,53,137" id="路径_40-2" node-id="171" stroke="#aa5c10" stroke-linecap="round" stroke-width="4.000578" target-height="22.399963" target-width="6" target-x="371.6" target-y="747.7"></path><path d="M 369.00 745.40 L 363.00 767.80" fill="none" group-id="5,16,53,138" id="路径_41-2" node-id="172" stroke="#aa5c10" stroke-linecap="round" stroke-width="4.000578" target-height="22.399963" target-width="6" target-x="363" target-y="745.4"></path><path d="M 352.50 753.00 L 374.40 758.90" fill="none" group-id="5,16,53,139" id="路径_42-2" node-id="173" stroke="#aa5c10" stroke-linecap="round" stroke-width="4.000578" target-height="5.9000244" target-width="21.899994" target-x="352.5" target-y="753"></path><path d="M 377.50 146.20 L 379.40 148.10 L 380.90 150.30 L 382.00 152.70 L 382.70 155.20 L 382.90 157.70 L 382.70 160.30 L 382.10 162.80 L 381.00 165.10 L 379.50 167.40 L 377.50 169.30 L 375.40 170.80 L 373.00 171.80 L 370.50 172.50 L 368.00 172.70 L 365.40 172.40 L 362.90 171.80 L 360.50 170.70 L 358.20 169.10 L 356.30 167.10 L 354.80 164.90 L 353.70 162.60 L 353.00 160.10 L 352.80 157.50 L 353.00 155.00 L 353.60 152.50 L 354.70 150.10 L 356.20 147.90 L 358.20 145.90 L 360.30 144.50 L 362.70 143.40 L 365.20 142.80 L 367.70 142.60 L 370.30 142.80 L 372.80 143.50 L 375.20 144.60 L 377.50 146.20 Z" fill="#e8b124" fill-rule="nonzero" group-id="5,17" id="椭圆_23-3" node-id="175" stroke="none" target-height="30.09999" target-width="30.100006" target-x="352.8" target-y="142.6"></path><g clip-path="url(#clip-path-7_3)" group-id="5,17,54" id="蒙版组_7-3" node-id="176"><path d="M 361.80 165.80 L 362.70 172.40" fill="none" group-id="5,17,54,140" id="路径_43-3" node-id="177" stroke="#aa5c10" stroke-linecap="butt" stroke-width="1.9999999" target-height="6.599991" target-width="0.9000244" target-x="361.8" target-y="165.8"></path><path d="M 368.50 166.20 L 369.40 173.50" fill="none" group-id="5,17,54,141" id="路径_44-3" node-id="178" stroke="#aa5c10" stroke-linecap="butt" stroke-width="1.9999999" target-height="7.300003" target-width="0.8999939" target-x="368.5" target-y="166.2"></path><path d="M 374.60 164.80 L 375.80 171.10" fill="none" group-id="5,17,54,142" id="路径_45-3" node-id="179" stroke="#aa5c10" stroke-linecap="butt" stroke-width="1.9999999" target-height="6.300003" target-width="1.1999817" target-x="374.6" target-y="164.8"></path><path d="M 377.80 161.50 L 380.30 167.00" fill="none" group-id="5,17,54,143" id="路径_46-3" node-id="180" stroke="#aa5c10" stroke-linecap="butt" stroke-width="1.9999999" target-height="5.5" target-width="2.5" target-x="377.8" target-y="161.5"></path><path d="M 379.20 156.00 L 383.00 161.90" fill="none" group-id="5,17,54,144" id="路径_47-3" node-id="181" stroke="#aa5c10" stroke-linecap="butt" stroke-width="1.9999999" target-height="5.899994" target-width="3.7999878" target-x="379.2" target-y="156"></path></g><path d="M 375.40 145.70 L 377.10 147.40 L 378.30 149.30 L 379.30 151.40 L 379.90 156.00 L 379.00 160.60 L 378.00 162.80 L 376.50 164.90 L 374.70 166.70 L 372.70 168.10 L 368.30 169.80 L 363.70 169.90 L 361.50 169.40 L 359.40 168.50 L 357.40 167.10 L 355.70 165.40 L 354.40 163.40 L 353.50 161.30 L 352.80 156.80 L 353.70 152.10 L 354.70 150.00 L 356.20 147.90 L 358.00 146.00 L 360.00 144.60 L 364.40 143.00 L 369.00 142.80 L 371.30 143.40 L 373.40 144.30 L 375.40 145.70 Z" fill="#fbe14b" fill-rule="nonzero" group-id="5,17,55" id="椭圆_24-3" node-id="182" stroke="none" target-height="27.09999" target-width="27.100006" target-x="352.8" target-y="142.8"></path><path d="M 374.40 146.10 L 376.90 149.20 L 377.70 151.00 L 378.30 154.90 L 377.50 158.90 L 375.30 162.60 L 372.00 165.40 L 368.20 166.90 L 364.30 167.00 L 360.60 165.70 L 358.90 164.60 L 357.40 163.10 L 356.30 161.40 L 355.10 157.70 L 355.20 153.70 L 355.80 151.70 L 357.90 148.00 L 361.20 145.30 L 365.00 143.80 L 368.90 143.70 L 370.90 144.10 L 374.40 146.10 Z" fill="none" group-id="5,17,56" node-id="813" stroke="none" target-height="23.300003" target-width="23.199982" target-x="355.1" target-y="143.7"></path><path d="M 373.70 146.90 L 376.00 149.70 L 376.80 151.40 L 377.30 154.90 L 376.50 158.60 L 374.50 162.00 L 371.60 164.50 L 368.10 165.90 L 364.50 166.00 L 362.70 165.60 L 359.50 163.80 L 357.20 160.90 L 356.50 159.30 L 356.00 155.70 L 356.70 152.10 L 358.70 148.70 L 361.70 146.10 L 365.20 144.80 L 368.80 144.70 L 370.50 145.10 L 373.70 146.90 Z" fill="none" group-id="5,17,56" node-id="815" stroke="#aa5c10" stroke-linecap="butt" stroke-width="1.9999999" target-height="21.300003" target-width="21.299988" target-x="356" target-y="144.7"></path><path d="M 842.50 617.40 L 841.50 615.60 L 839.50 613.90 L 838.20 613.50 L 836.70 613.50 L 834.80 614.30 L 789.90 645.50 L 761.40 665.80 L 748.80 675.10 L 748.20 675.70 L 749.40 679.00 L 758.70 695.50 L 775.90 723.90 L 869.00 671.10 L 870.40 668.50 L 870.60 667.00 L 870.30 665.20 L 869.30 663.10 L 842.50 617.40 Z" fill="#db3441" fill-rule="nonzero" group-id="5,18" id="路径_14" node-id="187" stroke="none" target-height="110.400024" target-width="122.39996" target-x="748.2" target-y="613.5"></path><g clip-path="url(#clip-path-8)" group-id="5,18,57" node-id="822"><path d="M 872.00 670.60 L 828.20 660.00 L 835.10 610.50 L 843.80 613.10 L 871.50 658.00 Z" fill="#b62d2f" fill-rule="nonzero" group-id="5,18,57,145" id="路径_15" node-id="189" stroke="none" target-height="60.099976" target-width="43.799988" target-x="828.2" target-y="610.5"></path></g><path d="M 820.80 654.30 L 822.30 652.30 L 824.20 650.70 L 826.30 649.70 L 828.60 649.30 L 831.70 649.70 L 834.50 651.30 L 836.50 653.70 L 837.30 655.80 L 837.60 658.20 L 837.30 660.60 L 836.40 663.00 L 834.80 665.00 L 833.00 666.60 L 830.80 667.60 L 828.50 668.00 L 825.50 667.60 L 824.00 667.00 L 821.50 664.90 L 820.70 663.60 L 819.80 661.50 L 819.50 659.10 L 819.80 656.70 L 820.80 654.30 Z" fill="#eac356" fill-rule="nonzero" group-id="5,18,58" id="椭圆_3" node-id="190" stroke="none" target-height="18.700012" target-width="18.099976" target-x="819.5" target-y="649.3"></path><path d="M 835.60 656.40 L 832.50 656.60 L 830.00 656.00 L 828.20 654.30 L 826.80 651.50 L 826.70 653.40 L 825.60 657.00 L 824.50 658.50 L 821.60 660.90 L 823.40 660.80 L 826.90 661.70 L 828.30 662.80 L 830.40 665.80 L 830.40 663.80 L 831.50 660.00 L 832.60 658.60 L 835.60 656.40 Z" fill="#9f8665" fill-rule="nonzero" group-id="5,18,59" id="路径_17" node-id="191" stroke="none" target-height="14.299988" target-width="14" target-x="821.6" target-y="651.5"></path><path d="M 748.70 602.00 L 746.60 601.20 L 745.30 601.20 L 743.80 602.10 L 743.10 603.20 L 726.90 645.10 L 717.40 671.40 L 720.00 673.10 L 726.30 676.40 L 751.60 688.20 L 784.00 623.30 L 784.40 621.90 L 784.20 620.40 L 782.80 618.60 L 781.50 617.70 L 748.70 602.00 Z" fill="#db3441" fill-rule="nonzero" group-id="5,19" id="路径_14-2" node-id="193" stroke="none" target-height="87" target-width="67" target-x="717.4" target-y="601.2"></path><g clip-path="url(#clip-path-9)" group-id="5,19,60" node-id="839"><path d="M 785.90 620.90 L 756.90 631.80 L 741.80 600.90 L 747.80 599.00 L 780.70 614.00 Z" fill="#b62d2f" fill-rule="nonzero" group-id="5,19,60,146" id="路径_15-2" node-id="195" stroke="none" target-height="32.799988" target-width="44.100037" target-x="741.8" target-y="599"></path></g><path d="M 750.50 631.40 L 750.60 629.60 L 751.00 628.00 L 751.90 626.60 L 753.00 625.50 L 754.40 624.70 L 756.00 624.30 L 757.70 624.40 L 759.10 624.90 L 760.50 625.90 L 761.50 627.10 L 762.30 628.50 L 762.70 630.30 L 762.60 632.10 L 762.10 633.60 L 761.30 635.00 L 760.10 636.20 L 758.80 636.90 L 757.10 637.30 L 755.50 637.20 L 754.00 636.70 L 752.70 635.80 L 751.60 634.60 L 750.90 633.10 L 750.50 631.40 Z" fill="#eac356" fill-rule="nonzero" group-id="5,19,61" id="椭圆_3-2" node-id="196" stroke="none" target-height="13" target-width="12.200012" target-x="750.5" target-y="624.3"></path><path d="M 759.70 626.90 L 758.20 628.10 L 756.40 628.80 L 754.50 628.40 L 752.80 627.50 L 753.80 629.20 L 754.30 631.00 L 754.10 633.00 L 753.50 634.80 L 755.00 633.80 L 756.80 633.20 L 758.60 633.40 L 760.30 634.20 L 759.30 632.40 L 758.70 630.50 L 759.00 628.60 L 759.70 626.90 Z" fill="#9f8665" fill-rule="nonzero" group-id="5,19,62" id="路径_17-2" node-id="197" stroke="none" target-height="7.8999634" target-width="7.5" target-x="752.8" target-y="626.9"></path><path d="M 767.00 779.00 L 764.40 779.90 L 761.80 780.40 L 759.20 780.50 L 756.60 780.10 L 754.20 779.30 L 752.00 778.10 L 749.90 776.50 L 748.20 774.50 L 746.80 772.20 L 745.80 769.60 L 745.30 767.10 L 745.30 764.50 L 745.80 761.90 L 746.60 759.60 L 747.90 757.30 L 749.50 755.30 L 751.50 753.50 L 753.90 752.10 L 756.50 751.10 L 759.10 750.60 L 761.70 750.60 L 764.20 751.00 L 766.70 751.80 L 768.90 753.00 L 770.90 754.60 L 772.70 756.50 L 774.10 758.90 L 775.10 761.40 L 775.50 764.00 L 775.50 766.60 L 775.10 769.10 L 774.20 771.50 L 773.00 773.80 L 771.40 775.80 L 769.40 777.50 L 767.00 779.00 Z" fill="#e8b124" fill-rule="nonzero" group-id="5,20" id="椭圆_23-4" node-id="199" stroke="none" target-height="29.900024" target-width="30.200012" target-x="745.3" target-y="750.6"></path><g clip-path="url(#clip-path-7_4)" group-id="5,20,63" id="蒙版组_7-4" node-id="200"><path d="M 755.40 756.60 L 749.00 754.80" fill="none" group-id="5,20,63,147" id="路径_43-4" node-id="201" stroke="#aa5c10" stroke-linecap="butt" stroke-width="2.0000448" target-height="1.7999878" target-width="6.4000244" target-x="749" target-y="754.8"></path><path d="M 752.40 762.70 L 745.30 760.50" fill="none" group-id="5,20,63,148" id="路径_44-4" node-id="202" stroke="#aa5c10" stroke-linecap="butt" stroke-width="2.0000448" target-height="2.2000122" target-width="7.1000366" target-x="745.3" target-y="760.5"></path><path d="M 751.20 768.70 L 744.90 767.30" fill="none" group-id="5,20,63,149" id="路径_45-4" node-id="203" stroke="#aa5c10" stroke-linecap="butt" stroke-width="2.0000448" target-height="1.4000244" target-width="6.299988" target-x="744.9" target-y="767.3"></path><path d="M 752.90 773.10 L 746.80 773.10" fill="none" group-id="5,20,63,150" id="路径_46-4" node-id="204" stroke="#aa5c10" stroke-linecap="butt" stroke-width="2.0000448" target-height="0" target-width="6.1000366" target-x="746.8" target-y="773.1"></path><path d="M 757.30 776.60 L 750.30 777.60" fill="none" group-id="5,20,63,151" id="路径_47-4" node-id="205" stroke="#aa5c10" stroke-linecap="butt" stroke-width="2.0000448" target-height="1" target-width="7" target-x="750.3" target-y="776.6"></path></g><path d="M 768.30 777.30 L 766.00 778.10 L 763.70 778.50 L 761.40 778.50 L 759.20 778.00 L 757.00 777.20 L 753.10 774.50 L 751.60 772.70 L 750.30 770.50 L 749.30 768.10 L 748.90 765.70 L 749.10 761.00 L 749.80 758.80 L 750.90 756.80 L 752.30 754.90 L 754.00 753.40 L 756.00 752.10 L 758.30 751.30 L 760.60 750.90 L 765.20 751.30 L 767.30 752.10 L 769.40 753.30 L 771.20 754.80 L 774.10 758.90 L 775.00 761.30 L 775.50 763.60 L 775.20 768.40 L 773.50 772.60 L 772.10 774.40 L 770.40 776.00 L 768.30 777.30 Z" fill="#fbe14b" fill-rule="nonzero" group-id="5,20,64" id="椭圆_24-4" node-id="206" stroke="none" target-height="27.599976" target-width="26.599976" target-x="748.9" target-y="750.9"></path><path d="M 768.30 776.20 L 764.40 777.20 L 762.40 777.20 L 758.70 776.10 L 755.30 773.80 L 752.80 770.30 L 751.60 766.20 L 751.80 762.10 L 753.30 758.50 L 756.00 755.60 L 757.70 754.50 L 759.70 753.80 L 761.60 753.40 L 765.60 753.90 L 769.20 755.60 L 770.70 756.90 L 773.20 760.40 L 774.40 764.50 L 774.20 768.50 L 772.70 772.20 L 771.50 773.80 L 768.30 776.20 Z" fill="none" group-id="5,20,65" node-id="882" stroke="none" target-height="23.799988" target-width="22.800049" target-x="751.6" target-y="753.4"></path><path d="M 767.90 775.30 L 764.30 776.20 L 762.50 776.20 L 759.10 775.20 L 756.00 773.10 L 753.70 769.90 L 752.60 766.10 L 752.80 762.40 L 754.20 759.00 L 756.60 756.40 L 760.00 754.70 L 761.70 754.40 L 765.30 754.80 L 768.60 756.40 L 770.00 757.60 L 772.30 760.80 L 773.40 764.60 L 773.20 768.30 L 771.90 771.60 L 770.80 773.10 L 767.90 775.30 Z" fill="none" group-id="5,20,65" node-id="884" stroke="#aa5c10" stroke-linecap="butt" stroke-width="2.0000448" target-height="21.799988" target-width="20.800049" target-x="752.6" target-y="754.4"></path><path d="M 207.50 762.90 L 216.40 772.40 L 231.60 787.30 L 244.00 798.20 L 250.30 803.30 L 256.80 808.00 L 267.00 814.30 L 270.80 816.00 L 277.70 818.40 L 282.60 820.80 L 285.30 823.40 L 286.20 825.00 L 286.50 826.80 L 286.40 829.10 L 279.30 840.60 L 271.30 852.10 L 267.30 857.40 L 263.40 861.80 L 259.60 865.70 L 256.40 868.20 L 254.10 869.50 L 252.30 869.90 L 250.90 869.70 L 243.30 866.80 L 230.90 861.30 L 215.60 854.00 L 199.70 845.40 L 185.10 836.10 L 180.70 832.80 L 173.80 826.70 L 171.00 823.40 L 169.10 820.50 L 168.00 817.80 L 167.60 815.00 L 167.70 812.00 L 168.40 808.70 L 169.60 805.40 L 173.40 798.40 L 177.00 793.20 L 185.70 783.00 L 198.70 770.40 L 207.50 762.90 Z" fill="#59af90" fill-rule="nonzero" group-id="5,21" id="路径_116" node-id="211" stroke="none" target-height="107" target-width="118.899994" target-x="167.6" target-y="762.9"></path><g clip-path="url(#clip-path-11)" group-id="5,21,66" id="蒙版组_17" node-id="212"><path d="M 213.50 765.10 L 173.00 827.50" fill="none" group-id="5,21,66,152" id="路径_117" node-id="213" stroke="#d5f5ee" stroke-linecap="butt" stroke-width="3.9999719" target-height="62.400024" target-width="40.5" target-x="173" target-y="765.1"></path><path d="M 223.70 776.00 L 183.20 838.40" fill="none" group-id="5,21,66,153" id="路径_118" node-id="214" stroke="#d5f5ee" stroke-linecap="butt" stroke-width="3.9999719" target-height="62.400024" target-width="40.5" target-x="183.2" target-y="776"></path><path d="M 265.80 814.60 L 226.00 868.10" fill="none" group-id="5,21,66,154" id="路径_119" node-id="215" stroke="#d5f5ee" stroke-linecap="butt" stroke-width="3.9999719" target-height="53.5" target-width="39.799988" target-x="226" target-y="814.6"></path><path d="M 281.60 817.20 L 240.10 870.60" fill="none" group-id="5,21,66,155" id="路径_120" node-id="216" stroke="#d5f5ee" stroke-linecap="butt" stroke-width="3.9999719" target-height="53.399963" target-width="41.5" target-x="240.1" target-y="817.2"></path></g><path d="M 309.10 711.80 L 298.70 720.10 L 288.60 728.80 L 277.90 739.10 L 272.90 744.50 L 266.00 753.30 L 264.10 756.60 L 260.30 764.50 L 258.80 766.40 L 257.20 767.80 L 255.90 768.30 L 252.70 768.20 L 244.30 761.90 L 232.20 751.50 L 226.30 745.10 L 224.50 742.40 L 223.80 740.60 L 223.50 739.20 L 223.80 738.10 L 231.60 723.20 L 238.30 712.00 L 246.00 700.20 L 254.20 689.60 L 258.30 685.00 L 262.20 681.50 L 264.80 679.60 L 267.20 678.30 L 269.40 677.70 L 271.90 677.50 L 274.70 678.00 L 277.70 679.10 L 283.50 682.70 L 290.80 689.20 L 295.00 693.60 L 302.20 702.30 L 309.10 711.80 Z" fill="#59af90" fill-rule="nonzero" group-id="5,22" id="路径_116-2" node-id="218" stroke="none" target-height="90.79999" target-width="85.600006" target-x="223.5" target-y="677.5"></path><g clip-path="url(#clip-path-12)" group-id="5,22,67" id="蒙版组_17-2" node-id="219"><path d="M 307.00 716.30 L 261.60 680.90" fill="none" group-id="5,22,67,156" id="路径_117-2" node-id="220" stroke="#d5f5ee" stroke-linecap="butt" stroke-width="4.000722" target-height="35.399963" target-width="45.399994" target-x="261.6" target-y="680.9"></path><path d="M 297.90 723.40 L 252.50 688.00" fill="none" group-id="5,22,67,157" id="路径_118-2" node-id="221" stroke="#d5f5ee" stroke-linecap="butt" stroke-width="4.000722" target-height="35.400024" target-width="45.399994" target-x="252.5" target-y="688"></path><path d="M 265.30 753.30 L 226.70 719.00" fill="none" group-id="5,22,67,158" id="路径_119-2" node-id="222" stroke="#d5f5ee" stroke-linecap="butt" stroke-width="4.000722" target-height="34.299988" target-width="38.59999" target-x="226.7" target-y="719"></path><path d="M 262.30 765.30 L 223.80 729.70" fill="none" group-id="5,22,67,159" id="路径_120-2" node-id="223" stroke="#d5f5ee" stroke-linecap="butt" stroke-width="4.000722" target-height="35.599976" target-width="38.499985" target-x="223.8" target-y="729.7"></path></g><path d="M 193.50 703.00 L 202.10 712.50 L 216.70 727.40 L 228.70 738.20 L 234.90 743.20 L 241.30 747.90 L 247.30 751.70 L 251.40 753.90 L 255.30 755.60 L 262.30 757.70 L 267.30 760.00 L 269.90 762.60 L 270.60 764.20 L 270.80 766.10 L 270.50 768.50 L 262.00 781.00 L 252.70 793.40 L 248.00 799.20 L 243.60 804.00 L 239.20 808.30 L 235.60 811.10 L 233.10 812.60 L 231.20 813.10 L 229.70 813.00 L 222.00 810.30 L 209.50 805.20 L 194.20 798.30 L 178.20 790.00 L 170.50 785.50 L 163.70 781.00 L 159.30 777.80 L 152.70 771.70 L 150.60 769.20 L 148.00 764.80 L 147.40 762.70 L 147.20 759.80 L 147.50 756.60 L 148.60 753.10 L 150.20 749.60 L 154.70 742.00 L 158.90 736.40 L 168.90 725.20 L 183.70 711.30 L 193.50 703.00 Z" fill="#aae5ea" fill-rule="nonzero" group-id="5,23" id="路径_116-3" node-id="225" stroke="none" target-height="110.099976" target-width="123.59999" target-x="147.2" target-y="703"></path><g clip-path="url(#clip-path-13)" group-id="5,23,68" id="蒙版组_17-3" node-id="226"><path d="M 198.00 705.70 L 150.20 773.30" fill="none" group-id="5,23,68,160" id="路径_117-3" node-id="227" stroke="#6ab49f" stroke-linecap="butt" stroke-width="4" target-height="67.599976" target-width="47.800003" target-x="150.2" target-y="705.7"></path><path d="M 203.30 708.70 L 155.50 776.30" fill="none" group-id="5,23,68,161" id="路径_118-3" node-id="228" stroke="#6ab49f" stroke-linecap="butt" stroke-width="4" target-height="67.599976" target-width="47.800003" target-x="155.5" target-y="708.7"></path><path d="M 254.10 756.00 L 207.80 814.20" fill="none" group-id="5,23,68,162" id="路径_119-3" node-id="229" stroke="#6ab49f" stroke-linecap="butt" stroke-width="4" target-height="58.200012" target-width="46.300003" target-x="207.8" target-y="756"></path><path d="M 266.50 756.20 L 218.40 814.50" fill="none" group-id="5,23,68,163" id="路径_120-3" node-id="230" stroke="#6ab49f" stroke-linecap="butt" stroke-width="4" target-height="58.299988" target-width="48.100006" target-x="218.4" target-y="756.2"></path></g><path d="M 230.90 755.30 L 219.00 745.50 L 210.40 739.90 L 203.10 736.50 L 200.40 735.80 L 196.30 735.60 L 193.40 736.80 L 192.20 737.90 L 191.30 739.50 L 191.00 741.10 L 191.30 742.90 L 193.10 746.50 L 197.50 751.40 L 200.90 754.50 L 215.00 766.00 L 217.80 768.70 L 220.60 772.50 L 220.90 773.80 L 220.70 774.80 L 219.80 776.20 L 218.40 777.20 L 216.50 778.00 L 214.50 778.30 L 209.10 778.10 L 203.10 776.50 L 196.50 773.50 L 189.90 769.10 L 183.80 763.40 L 180.90 760.00" fill="none" group-id="5,23,69,164" id="路径_121" node-id="232" stroke="#6ab49f" stroke-linecap="round" stroke-width="8" target-height="42.700012" target-width="50" target-x="180.9" target-y="735.6"></path><path d="M 212.20 731.90 L 183.30 775.90" fill="none" group-id="5,23,69,165" id="路径_122" node-id="233" stroke="#6ab49f" stroke-linecap="round" stroke-width="8" target-height="44" target-width="28.899994" target-x="183.3" target-y="731.9"></path><path d="M 223.20 742.90 L 194.30 786.90" fill="none" group-id="5,23,69,166" id="路径_123" node-id="234" stroke="#6ab49f" stroke-linecap="round" stroke-width="8" target-height="44" target-width="28.899994" target-x="194.3" target-y="742.9"></path></g></svg>